/* XPM */
static char *a1e5d5a6f04e431da1c2cba77c8e4f9amxNuBTK1g1PtRN4z[] = {
/* columns rows colors chars-per-pixel */
"32 32 203 2 ",
"   c #443D27",
".  c #4A3F29",
"X  c #395D0F",
"o  c #3F4E1D",
"O  c #3A5516",
"+  c #3D5C13",
"@  c #375219",
"#  c #3D541C",
"$  c #3F5B18",
"%  c #326A07",
"&  c #35600F",
"*  c #3C660D",
"=  c #346B09",
"-  c #3C6C0B",
";  c #347107",
":  c #377A07",
">  c #3C7A07",
",  c #3C740B",
"<  c #377808",
"1  c #3D7B09",
"2  c #3D6412",
"3  c #3E6912",
"4  c #3D7211",
"5  c #3D4424",
"6  c #404D1E",
"7  c #435017",
"8  c #455C17",
"9  c #43541D",
"0  c #4A521D",
"q  c #445B1B",
"w  c #4A5B1D",
"e  c #53561F",
"r  c #5D5F1E",
"t  c #416E0E",
"y  c #43750D",
"u  c #48750F",
"i  c #437A0B",
"p  c #4A7E0F",
"a  c #426413",
"s  c #436B12",
"d  c #4B6D15",
"f  c #44631A",
"g  c #4B6719",
"h  c #4A631C",
"j  c #516D15",
"k  c #53641F",
"l  c #546B1B",
"z  c #5D6C1C",
"x  c #447311",
"c  c #4A7414",
"v  c #427A10",
"b  c #4D7C14",
"n  c #4F741C",
"m  c #527E15",
"M  c #54731A",
"N  c #577518",
"B  c #5C731A",
"V  c #547B18",
"C  c #606C1D",
"Z  c #6A6D1F",
"A  c #68771A",
"S  c #627A1C",
"D  c #697B1E",
"F  c #444325",
"G  c #494627",
"H  c #444C22",
"J  c #4B4C23",
"K  c #424229",
"L  c #4C4329",
"P  c #544C23",
"I  c #59442A",
"U  c #544B28",
"Y  c #5A4B2A",
"T  c #455322",
"R  c #4B5325",
"E  c #4D5A23",
"W  c #545223",
"Q  c #595424",
"!  c #565D23",
"~  c #5C5B23",
"^  c #584D3C",
"/  c #634F27",
"(  c #614B2E",
")  c #635425",
"_  c #635B27",
"`  c #6B5E26",
"'  c #655229",
"]  c #69542C",
"[  c #635E2A",
"{  c #6C5C2D",
"}  c #73562A",
"|  c #6F5535",
" . c #725C34",
".. c #5A6321",
"X. c #556924",
"o. c #577120",
"O. c #5D7532",
"+. c #636524",
"@. c #6C6124",
"#. c #666A21",
"$. c #6B6C23",
"%. c #66642D",
"&. c #726D25",
"*. c #796C26",
"=. c #75612C",
"-. c #7B622E",
";. c #796B2B",
":. c #647421",
">. c #6C7923",
",. c #6A7129",
"<. c #637E2E",
"1. c #727525",
"2. c #727923",
"3. c #74742B",
"4. c #6F6831",
"5. c #686837",
"6. c #776030",
"7. c #7D6935",
"8. c #72683E",
"9. c #617631",
"0. c #6C7334",
"q. c #6A743B",
"w. c #7A783A",
"e. c #605E42",
"r. c #626243",
"t. c #686C4A",
"y. c #706C43",
"u. c #6B7C47",
"i. c #7A7443",
"p. c #7A794C",
"a. c #776E5B",
"s. c #7F7359",
"d. c #776B66",
"f. c #7B6E62",
"g. c #7A7764",
"h. c #7E7464",
"j. c #82682A",
"k. c #807431",
"l. c #817749",
"z. c #83725D",
"x. c #827D5D",
"c. c #8A7A5D",
"v. c #816E6B",
"b. c #807261",
"n. c #867E68",
"m. c #8B7E6B",
"M. c #917E6C",
"N. c #877E73",
"B. c #887F73",
"V. c #917F70",
"C. c #3A8207",
"Z. c #3D8009",
"A. c #44820C",
"S. c #49830E",
"D. c #448D0A",
"F. c #4B8C0D",
"G. c #518E0F",
"H. c #439009",
"J. c #4B910C",
"K. c #51910E",
"L. c #4D8211",
"P. c #4E8910",
"I. c #538413",
"U. c #538B12",
"Y. c #588E14",
"T. c #589213",
"R. c #64851A",
"E. c #5B8022",
"W. c #668327",
"Q. c #6A8234",
"!. c #6F8938",
"~. c #7A8636",
"^. c #78874A",
"/. c #7E904E",
"(. c #7F8356",
"). c #DFB500",
"_. c #E8C831",
"`. c #FFF83A",
"'. c #858756",
"]. c #83845E",
"[. c #848266",
"{. c #888867",
"}. c #8E836C",
"|. c #958762",
" X c #919863",
".X c #8E8471",
"XX c #968A75",
"oX c #95887B",
"OX c #948A7B",
"+X c #9F8F8D",
"@X c #9F9086",
"#X c #A19283",
"$X c #A39B82",
"%X c #A7988A",
"&X c #AE9C93",
"*X c #B19F95",
"=X c #AFA18C",
"-X c #B4A194",
";X c #B6A39A",
":X c #BAA69C",
">X c #BEA9A2",
",X c #C2ADA4",
"<X c #C1ACA8",
/* pixels */
"i A.L.- - A.i - i S., C.; % D.1 1 - % 1 D.H.1 % : C.= = S.Z.1 F.",
"- x c b I.b i b y , L., Z.x < , L.A.S., , < , p < p S.p y , = i ",
"L.m 7 c , c x n s c 2 x v f v 2 i A.c 3 b b 3 c , x = s 7 L.S.Y.",
"L.p w I.c R T R h H T w 5 h # T H 9 T g 5 H g H 9 T x L.8 S.S.y ",
"- i c 9 K J _ U G L H Q Y G G J W ` Q F L L F P _ J K # x , = - ",
"y a a m ! ' -.;.D @./ { :.$.$.C [ X.4.&.$.=.>.S ;.) ! b 2 + i I.",
"a , m f h ) #.#.o.5.r.f.^.,.B E.n.OXXX(.,.0.p.q.S C h f b , s Y.",
"P.1 - F ' *.R.9.}.B.N.&X%X8.8.8.8.8.8.>X}.[.&X#XO.B Q F - 1 L.s ",
"J.F.8 P r z !.#X:X;XB.8.8.`.`.`.`.`.`.8.8.[..XOXm.0.z P 8 F.F.b ",
"< D.f g e ) q.&X%X'.8.`.`._._._._._._.`.`.8.'.:X>Xf...h f D., a ",
"S.i d ~ j { s.|.~.8.`._._._._.`.`._._._._.`.8.oXOXr.l ~ d A.S.L.",
"c b l ) S (.;X-X8.`._._.`._._.`.`._._.`._._.`.8.g.<.A ' M b b J.",
"g c E ..2.b.+X;X8.`._._.`._._.`.`._._.`._._.`.8.;X'.Z Y E c s i ",
"1 b W ~ B | d.8.`._._.`.`._._.`.`._._.`.`._._.`.8.x.V Y W b 1 Y.",
", A.k  .k.-.v.8.`._._.`.`._._.`.`._._.`.`._._.`.8.q.%.( k A., , ",
"9 4 h ] c.w.5.8._._._.`.`.`.`.`.`.`.`.`.`._._._.8.^.z.] h 4 q s ",
"3 i z Y e.W.X.8._._._.).).).).`.`.).).).)._._._.8.<.^ Y B i s I.",
"& , J =.[ o.g.8._._._._._._._.`.`._._._._._._._.8.:.=.=.J , 3 Y.",
"8 @   6.D Q.:X8._._._._._._._.`.`._._._._._._._.8.O.>. .  @ 8 d ",
"m O 0 ( ) t.&X:X8.)._._._._._.`.`._._._._._.).8.@X[.n R 0 O b b ",
"< i P I }  .h.&X8.)._._._._._.`.`._._._._._.).8.=Xh.z I P i 1 s ",
"S.i 8 ! )  .s.OXOX8.)._._._._.).)._._._._.).8.OX/.y.{ Q q A.S.L.",
"A.i h h e f.*X:X X^.8.).)._._._._._._._.).8.~.u.t.a.8...9 - S.K.",
"- x d P +.p.XX&X$XW..X8.8.).).).).).).8.8.w.Q.$X%Xz.=.W M I.m i ",
"L.I.i 6 Q #.>.q.b.i.#X,X,X8.8.8.8.8.8.{.m.7.OX<X>XM.Y H L.G.S.Y.",
"I.S.S.s l ~ ~ z N 3.x. X$X}.i.q.].{.].:.7.2.l.M.V.i.o.a * t i y ",
"- s + + . ) &.$.z S $.4.0._ m 3.M :.@.&.j.` +.+.1.+.U a + d y t ",
", i a h q H W J J 0 q w W H H ! H ) Q F Y L K J E 6 q g y i i L.",
"s u J d y w q 9 3 q O a o 8 $ # E g q 2 T # 9 o # $ p c 0 u i T.",
"U.i j a * y s s a x t I.y g 2 * y x s a d s d t c * * c d x y c ",
"K.U.i s t i U.T.I.c y G.U.i s t i U.T.I.c i K.U.i s t i U.T.I.c ",
"i G.i V y * , i t a X > G.i V y * , i t a X > G.i V y * , A.t s "
};
