/* XPM */
static char *c9277a34e82840fedd1ae9e7c8d71395rCjt89ALloxukbOb[] = {
/* columns rows colors chars-per-pixel */
"32 32 212 2 ",
"   c #463E28",
".  c #395D0F",
"X  c #3F4E1D",
"o  c #3A5516",
"O  c #3D5C13",
"+  c #375219",
"@  c #3D541C",
"#  c #3F5B18",
"$  c #326A07",
"%  c #35600F",
"&  c #3C660D",
"*  c #346B09",
"=  c #3C6C0B",
"-  c #377A07",
";  c #3C7A07",
":  c #367508",
">  c #3C740B",
",  c #3D7B09",
"<  c #3D6412",
"1  c #3E6912",
"2  c #3D7211",
"3  c #3D4424",
"4  c #404D1E",
"5  c #435017",
"6  c #455C17",
"7  c #43541D",
"8  c #4A521D",
"9  c #445B1B",
"0  c #4A5B1D",
"q  c #56591E",
"w  c #416E0E",
"e  c #43750D",
"r  c #48750F",
"t  c #437A0B",
"y  c #4A7E0F",
"u  c #426413",
"i  c #436B12",
"p  c #4B6D15",
"a  c #44631A",
"s  c #4B6719",
"d  c #4A631C",
"f  c #516D15",
"g  c #53641F",
"h  c #546B1B",
"j  c #5D6C1C",
"k  c #447311",
"l  c #4A7414",
"z  c #427A10",
"x  c #4D7C14",
"c  c #4F741C",
"v  c #527E15",
"b  c #54731A",
"n  c #577518",
"m  c #5C731A",
"M  c #547B18",
"N  c #606C1D",
"B  c #6A6D1F",
"V  c #68771A",
"C  c #627A1C",
"Z  c #697B1E",
"A  c #444325",
"S  c #494627",
"D  c #444C22",
"F  c #4B4C23",
"G  c #424229",
"H  c #4C4329",
"J  c #544C23",
"K  c #59442A",
"L  c #544B28",
"P  c #5A4B2A",
"I  c #455322",
"U  c #4B5325",
"Y  c #4D5A23",
"T  c #545223",
"R  c #595424",
"E  c #565D23",
"W  c #5C5B23",
"Q  c #584D3C",
"!  c #634F27",
"~  c #614B2E",
"^  c #635425",
"/  c #635B27",
"(  c #655229",
")  c #69542C",
"_  c #655E29",
"`  c #6C5C2D",
"'  c #73562A",
"]  c #6F5535",
"[  c #725C34",
"{  c #5A6321",
"}  c #556924",
"|  c #5B7325",
" . c #536F34",
".. c #5D7532",
"X. c #636524",
"o. c #6A6227",
"O. c #666A21",
"+. c #6B6C23",
"@. c #726D25",
"#. c #75612C",
"$. c #7A672B",
"%. c #647421",
"&. c #6C7923",
"*. c #67762B",
"=. c #727923",
"-. c #737429",
";. c #696835",
":. c #796836",
">. c #687433",
",. c #6A743B",
"<. c #7A783A",
"1. c #625E48",
"2. c #5D644F",
"3. c #656747",
"4. c #726D49",
"5. c #6B7C47",
"6. c #7A7443",
"7. c #7A794C",
"8. c #6B675D",
"9. c #69675E",
"0. c #766D5D",
"q. c #7D7353",
"w. c #7B7558",
"e. c #6C6A60",
"r. c #736D64",
"t. c #7B6E62",
"y. c #776769",
"u. c #777266",
"i. c #7C7666",
"p. c #7B756A",
"a. c #82682A",
"s. c #807431",
"d. c #817749",
"f. c #85755D",
"g. c #827D5D",
"h. c #816E6B",
"j. c #807261",
"k. c #827B6C",
"l. c #8B7D6C",
"z. c #917E6C",
"x. c #857D72",
"c. c #887F73",
"v. c #917F70",
"b. c #3A8207",
"n. c #3D8009",
"m. c #44820C",
"M. c #49830E",
"N. c #448D0A",
"B. c #4B8C0D",
"V. c #518E0F",
"C. c #48900B",
"Z. c #51910E",
"A. c #4D8211",
"S. c #4E8910",
"D. c #538413",
"F. c #538B12",
"G. c #588E14",
"H. c #589213",
"J. c #64851A",
"K. c #5B8022",
"L. c #658328",
"P. c #6A8334",
"I. c #6A8536",
"U. c #7A8636",
"Y. c #698040",
"T. c #798749",
"R. c #7D9048",
"E. c #7E8257",
"W. c #858756",
"Q. c #83845E",
"!. c #928E5A",
"~. c #899258",
"^. c #858266",
"/. c #8A8B67",
"(. c #86836C",
"). c #8D826C",
"_. c #938768",
"`. c #919863",
"'. c #878070",
"]. c #8B8274",
"[. c #8C8379",
"{. c #908676",
"}. c #948A74",
"|. c #93877A",
" X c #98857C",
".X c #958A7B",
"XX c #998C7F",
"oX c #969371",
"OX c #9D917D",
"+X c #A89D7C",
"@X c #968A81",
"#X c #9A8D83",
"$X c #9F8F8D",
"%X c #9E9083",
"&X c #A29385",
"*X c #A39B82",
"=X c #A5968C",
"-X c #A8978B",
";X c #A89A88",
":X c #AA9A8D",
">X c #AD9B92",
",X c #B19F96",
"<X c #AFA18C",
"1X c #B4A195",
"2X c #B5A299",
"3X c #BAA69D",
"4X c #BDA89F",
"5X c #BBA7A1",
"6X c #BEA9A2",
"7X c #C1ACA5",
"8X c #C4AEA9",
"9X c #C7B0AB",
/* pixels */
"t m.A.= = m.t = t M.> b.: $ N., , = $ , N.N., $ - b.* * M.n., B.",
"= k l x D.x t x e > A.> n.k - > A.m.M.> > - > y - y M.y e > * t ",
"A.v 5 l > l k c i l < k z a z < t m.l 1 x x 1 l > k * i 5 A.M.G.",
"A.y 0 D.l U I U d D I 0 3 d @ I D 7 I a 3 D a D 7 I k A.6 M.M.e ",
"= t l 7 G F / L S H D R P S S F T ` R A H H A J / F G o k > * = ",
"e u u v E ( #.$.&.o.! ` %.+.+.N / } ;.@.+.#.&.C $.^ E x < O t D.",
"u > v a d ^ O.O.| ;.3.t.T.*.m K.l.|.}.E.*.>.7.,.C N d a x > i G.",
"S., = A ( $.J.>.).c.c.>X=X8.3.2.>X8X8X6X).^.>X&X..m R D = , A.i ",
"C.B.6 J q j I.&X3X2Xc.[.XX%X>X&X].:X3X7X3X^.].XXl.>.j J 6 B.B.x ",
"- N.a s q ^ ,.,X;XW.(.XX1X1X6X9X,Xp.>X7X#XI.W.3X6Xt.{ d a N.> u ",
"M.t p W f ` q._.U.P.k.|.@X=X2X:X[.u.[..Xe.q.q.|..X3.h W p m.M.A.",
"l x h ^ C E.2X1X+X_.-XOXk.p.{.p.p.1X1X2X>XoXL.w.p.*.V ( b x x B.",
"s l Y { =.j.$X2X:X{.1X:X:X2X.Xc.c.:X,X3X4XOX~.:X2XW.B P Y l i t ",
", x T W m ] y.&X!.;X7X9X7X3X#Xu.OX%X].c.|.2X8X7X1Xg.M P T x , G.",
"> m.g [ s.$.h.,X|.-X>X5X2X&XXX'.|.&Xc.p.|.:X3X3X.X,.o.~ g m.> > ",
"7 2 d ) f.<.;.l.2X3X&Xk.p.%X1X-X-X2Xx.1X4X-X%Xr. .T.f.) d 2 9 i ",
"1 t j P 1.L.} 4.&X7X4X'.>X8X7X6X2X>Xc.=X7X7X=X1.C *.Q P m t i D.",
"% > F #._ } i.XXT.R.].k.&X2X5X=X@X#X@Xc.x.[.k.0.;.%.#.#.F > 1 G.",
"6 +   #.Z P.4X8X+XT.'.>X-Xu.p.8.=X8X8X6X(.E.:X=Xr...&.[   + 6 p ",
"v o 8 ~ ^ 3.>X3X7X3X'.[.XX#X:X%X].:X3X7X1XT.].XX%X^.c U 8 o x x ",
"- t J K ' [ i.>X7X#X'.OX1X1X6X9X,Xp.>X7X#X'.%X1X<Xi.j K J t , i ",
"M.t 6 E ^ [ w.{.|.8.p.|.@X>X2X>X[.u.[..X8.p.}..XR.4.` R 9 m.M.A.",
"m.t d d q t.,X3X`.T.:X:Xk.p.{.p.p.1X1X2X:X!.U.5.3.0.,.{ 7 = M.Z.",
"= k p J o.7.}.>X*XL.].=X:X2XOX^.k.:X1X3X,X<.P.*X-Xf.#.T b D.v t ",
"A.D.t 4 R O.&.,.j.6.&X7X7X3XoXY.&X&X]./.l.:. X8X6Xz.P D A.V.M.G.",
"D.M.M.i h W W j n -.g.`.*X).6.,.Q./.Q.%.:.=.d.z.v.6.| s & w t e ",
"= i O o   ^ @.+.j C +.;.>./ v -.b %.o.@.a._ X.X.-.X.L u O p e w ",
"> t u d 9 D T F F 8 9 0 T D D E D ^ R A P H G F Y 4 9 s e t t A.",
"i r F l e 0 9 7 1 9 o u X 6 # @ Y s 9 < I @ 7 X o # y l 8 r t H.",
"F.t f u & e i i u k w D.e s < & e k i u p i p w l & & l p k e l ",
"Z.F.t i w t F.H.D.l e V.F.t i w t F.H.D.l t Z.F.t i w t F.H.D.l ",
"t V.t M e & > t w u . t V.t M e & > t w u . ; V.t M e & > m.w i "
};
