/* XPM */
static char *_4c726421a504a6ea5cebdbd9f7618dbwDKY828gKnB17Aez[] = {
/* columns rows colors chars-per-pixel */
"32 32 5 1 ",
"  c None",
". c #63AB3F",
"X c #3B7D4F",
"o c #2F5753",
"O c white",
/* pixels */
"                                ",
" ...  .X  XX     ...  .Xo       ",
".XXX.XXoX....X  .XXX. Xoo.....  ",
"XoooX.Xo.XXXXXXXXoooX.Xo.XXXXX. ",
"oooXX.o.XXoooooooooXX.o.XXooooX.",
"ooXooXo.XooXooXoooXooXo.XooXoooX",
"...ooX..Xo....oo...ooX..Xo....o ",
"oXX..o.Xo.XXXX.ooXX..o.Xo.XXXX. ",
"XooX..XXo.XoooX.XooX..XXo.XoooX.",
"ooooX..o.Xoo..o.ooooX..o.Xoo..o.",
"o.oXoX.o.Xo.XX.oo.oXoX.o.Xo.XX. ",
".X.ooX.o.Xo.oX.o.X.ooX.o.Xo.oX. ",
".X.ooX.oXo.XooXo.X.ooX.oXo.XooX ",
"XoX.oX.ooo.XooXoXoX.oX.ooo.XooX ",
"ooX.o.XoXo.XoXooooX.o.XoXo.XoX  ",
"oXoXoXooXoXoooXooXoXoXooXoXoooX ",
"oXoooXo.XoooX.oooXoooXo.XoooX.  ",
"o...oo.XooXooX.oo...oo.XooXooX. ",
".XXX.oXoo....ooo.XXX.oXoo.....o ",
"XoooX.Xo.XXXXXoXXoooX.Xo.XXXXX. ",
"oooXX.o.XXoooooooooXX.o.XXooooX ",
"ooXooXo.XooXooXoooXooXo.XooXooo ",
"...ooX..Xo....oo...ooX..Xo....o ",
"oXX..o.Xo.XXXX.ooXX..o.Xo.XXXX. ",
"XooX..XXo.XoooX.XooX..XXo.XoooX.",
"ooooX..o.Xoo..o.ooooX..o.Xoo..X.",
"o.oXoX.o.Xo.XX.oo.oXoX.o.Xo.XX.X",
".X.ooX.o.Xo.oX.o.X.ooX.o.Xo.oX.X",
".X.ooX.oXo.XooXo.X.ooX.oXo.XooXX",
"XoX.oX.ooo.XooXoXoX.oX.ooo.XooXo",
"ooX.o.XoXo.XoXooooX.o.XoXo.XoXo ",
"oXoXoXooXoXoooXooXoXoXooXoXoooX "
};
