/* XPM */
static char *a4841f83f1b54ffabf8eef403b653842LQ5XGPNnHSMFRbFX[] = {
/* columns rows colors chars-per-pixel */
"32 32 193 2 ",
"   c black",
".  c #403040",
"X  c #3F3040",
"o  c #3C2F40",
"O  c #503018",
"+  c #42303C",
"@  c #55331A",
"#  c #462A15",
"$  c #090603",
"%  c #836144",
"&  c white",
"*  c #784040",
"=  c #361A1B",
"-  c #743B3C",
";  c #3C2020",
":  c #313939",
">  c #384040",
",  c #26263B",
"<  c #352C3E",
"1  c #352C3E",
"2  c #322C3F",
"3  c #362D3F",
"4  c #453241",
"5  c #543844",
"6  c #553844",
"7  c #553844",
"8  c #473240",
"9  c #4D3441",
"0  c #633D47",
"q  c None",
"w  c #2F2B3F",
"e  c #41303F",
"r  c #5E3A44",
"t  c #382E3F",
"y  c #A14D49",
"u  c #382E3F",
"i  c #4D3441",
"p  c #372E42",
"a  c #4E3441",
"s  c #753900",
"d  c #45302F",
"f  c #4B3340",
"g  c #452911",
"h  c #482D1C",
"j  c #4E3940",
"k  c black",
"l  c #211811",
"z  c black",
"x  c #1B140F",
"c  c black",
"v  c #0C0908",
"b  c #20160F",
"n  c black",
"m  c #120B05",
"M  c #4C2D16",
"N  c #030404",
"B  c #15100B",
"V  c #1C2121",
"C  c #2C3232",
"Z  c #0C0F0F",
"A  c #33393B",
"S  c #D96A6D",
"D  c #472A28",
"F  c #25201D",
"G  c #703738",
"H  c #86514E",
"J  c #6F3638",
"K  c #88514F",
"L  c #672D30",
"P  c #804948",
"I  c #88524F",
"U  c #7D4E4B",
"Y  c #383A3D",
"T  c #783A3C",
"R  c #361B1C",
"E  c #100F0F",
"W  c black",
"Q  c #150606",
"!  c #92373A",
"~  c #403939",
"^  c #464938",
"/  c #4B4C38",
"(  c #0D0404",
")  c #180707",
"_  c #190707",
"`  c #292525",
"'  c #313F48",
"]  c #2E3A44",
"[  c black",
"{  c #D5695C",
"}  c #A34F4B",
"|  c #D3675B",
" . c #E77060",
".. c #E97160",
"X. c #E97060",
"o. c #D2675A",
"O. c #EA7060",
"+. c #E87060",
"@. c #E26D5E",
"#. c #A95049",
"$. c #DE6A5B",
"%. c #A44D47",
"&. c #BB564C",
"*. c #DD6A5B",
"=. c #E36D5E",
"-. c #994946",
";. c #B05048",
":. c #B5534A",
">. c #BB564D",
",. c #DC6A5B",
"<. c #D76B5D",
"1. c #D56B5D",
"2. c #583843",
"3. c #A64D47",
"4. c #B15048",
"5. c #9F5049",
"6. c #544644",
"7. c #494543",
"8. c #A37960",
"9. c #5C3F44",
"0. c #974846",
"q. c #A64D48",
"w. c #A54E47",
"e. c #5B4542",
"r. c #454241",
"t. c #444241",
"y. c #A07557",
"u. c #5D3C2A",
"i. c #52353A",
"p. c #58363E",
"a. c #984946",
"s. c #984B47",
"d. c #964B46",
"f. c #482C17",
"g. c #704425",
"h. c #583623",
"j. c #54363B",
"k. c #55373F",
"l. c #55373E",
"z. c #784724",
"x. c #804D2A",
"c. c #804D2B",
"v. c #7F4C2B",
"b. c #4B2D17",
"n. c #754522",
"m. c #824D26",
"M. c #885028",
"N. c #895128",
"B. c #14130E",
"V. c #271A07",
"C. c #563419",
"Z. c #7D4925",
"A. c #824C27",
"S. c #484134",
"D. c #997408",
"F. c #553713",
"G. c #5F3C17",
"H. c #643F17",
"J. c #3C3D39",
"K. c #3D383B",
"L. c #833938",
"P. c #9E7107",
"I. c #403002",
"U. c #A87F02",
"Y. c #BD8E02",
"T. c #D1AA96",
"R. c #B79072",
"E. c #2F1C19",
"W. c #8F2A2D",
"Q. c #3F2509",
"!. c #9D7603",
"~. c #C79700",
"^. c #CA9A00",
"/. c #E0B4A1",
"(. c #CFA994",
"). c #2D1F1F",
"_. c #6F2A3A",
"`. c #57301C",
"'. c #94611B",
"]. c #BD8B08",
"[. c #C19004",
"{. c #425368",
"}. c #57432B",
"|. c #9E730A",
" X c #9A641C",
".X c #97601F",
"XX c #424046",
"oX c #4A5263",
"OX c #322C14",
"+X c #A0790B",
"@X c #B2870C",
"#X c #8C2D2E",
"$X c white",
/* pixels */
"                                                                ",
"                                                                ",
"                                                                ",
"                                                                ",
"                                                                ",
"                    . . . . . . . . . . .                       ",
"                . . X , < 1 1 1 1 1 < , X . .                   ",
"              . o 2 3 4 5 6 7 7 7 6 5 4 3 2 o .                 ",
"              . 2 8 9 0 q { { { { { q 0 9 8 2 .                 ",
"            . X 3 9 } |  ...X.X.X... .| } 9 3 X .               ",
"            . w e r o.O.+.+.+.+.+.+.+.O.o.r e w .               ",
"            . t 9 y @.X.+.+.+.+.+.+.+.X.@.y 9 t .               ",
"            . u i #.$.+.+.+.+.+.+.+.+.+.$.#.i u .               ",
"          O + p a %.&.*.=.+.X.X.X.+.=.*.&.%.a p + O             ",
"          @ s d f -.;.:.>.,.<.1.<.,.>.:.;.-.f d s @             ",
"          # g h j 2.3.4.;.5.6.7.6.5.;.4.3.2.j h g #             ",
"          $ k l 8.9.0.q.w.e.r.t.r.e.w.q.0.9.8.l k $             ",
"            z x y.u.i.p.a.s.d.d.d.s.a.p.i.u.y.x z               ",
"            c v b f.g.h.j.k.l.l.l.k.j.h.g.f.b v c               ",
"                n m M z.x.c.v.v.v.c.x.z.M m n                   ",
"                % N B b.n.m.M.N.M.m.n.b.B N %                   ",
"                & V C B.V.C.Z.A.Z.C.V.B.C V &                   ",
"          * =   n Z A S.D.F.G.H.G.F.D.S.A Z n   = *             ",
"          * S D F J.K.L.P.I.U.Y.U.I.P.L.K.J.F D S *             ",
"          * G H T.R.E.W.Q.!.~.^.~.!.Q.W.E.R.T.H G *             ",
"          * J K /.(.)._.`.'.].[.].'.`._.).(./.K J *             ",
"          * L P I U Y {.}.|. X.X X|.}.{.Y U I P L *             ",
"          * - L T R E XXoXOX+X@X+XOXoXXXE R T L - *             ",
"            * * ; W Q #X! ~ ^ / ^ ~ ! #XQ W ; * *               ",
"                  c ( ) _ ` ' ] ' ` _ ) ( c                     ",
"                    c z z [ : > : [ z z c                       ",
"                                                                "
};
