/* XPM */
static char *e587bf56f9c14ce78c25ef50b28234cdjixHv1OptMQ5MPQn[] = {
/* columns rows colors chars-per-pixel */
"32 32 214 2 ",
"   c #14130E",
".  c #1A1F10",
"X  c #271A07",
"o  c #201A13",
"O  c #2E1E1C",
"+  c #22280B",
"@  c #3F2509",
"#  c #273609",
"$  c #322B17",
"%  c #32331D",
"&  c #312D26",
"*  c #373628",
"=  c #353B3B",
"-  c #3B3B3B",
";  c #403002",
":  c #4A2D17",
">  c #4D2E18",
",  c #4E301A",
"<  c #5A3A15",
"1  c #57321B",
"2  c #643F17",
"3  c #473D28",
"4  c #5B3927",
"5  c #413F37",
"6  c #54363D",
"7  c #58363E",
"8  c #6F2A3A",
"9  c #395D0F",
"0  c #3F4E1E",
"q  c #3D5C13",
"w  c #385318",
"e  c #3E541C",
"r  c #336709",
"t  c #3C660D",
"y  c #346B09",
"u  c #3C6C0B",
"i  c #367807",
"p  c #3C7A07",
"a  c #3C740B",
"s  c #3D7B09",
"d  c #3D6412",
"f  c #3D6517",
"g  c #3D7211",
"h  c #3C4323",
"j  c #434C1E",
"k  c #435017",
"l  c #455C17",
"z  c #43541D",
"x  c #4A531D",
"c  c #445B1B",
"v  c #4A5C1D",
"b  c #56591E",
"n  c #416E0E",
"m  c #43750D",
"M  c #48750F",
"N  c #437A0B",
"B  c #4A7E0F",
"V  c #416413",
"C  c #436B12",
"Z  c #4C6D15",
"A  c #44631A",
"S  c #4B6719",
"D  c #4A621C",
"F  c #52681A",
"G  c #556C1C",
"H  c #5C6D1D",
"J  c #447311",
"K  c #477617",
"L  c #4A7414",
"P  c #4D7C14",
"I  c #517E15",
"U  c #5A7219",
"Y  c #547B18",
"T  c #636C1D",
"R  c #627A1D",
"E  c #697A1D",
"W  c #454426",
"Q  c #444C22",
"!  c #4C4C23",
"~  c #454429",
"^  c #4B4429",
"/  c #544C23",
"(  c #57462A",
")  c #594B29",
"_  c #445321",
"`  c #4C5724",
"'  c #535223",
"]  c #595424",
"[  c #565C23",
"{  c #5C5A24",
"}  c #494736",
"|  c #554A3C",
" . c #614C2B",
".. c #734524",
"X. c #7C4A27",
"o. c #645425",
"O. c #655829",
"+. c #6C5C2D",
"@. c #715630",
"#. c #725C34",
"$. c #586622",
"%. c #5B7525",
"&. c #587032",
"*. c #686825",
"=. c #75612C",
"-. c #786929",
";. c #677626",
":. c #727724",
">. c #676836",
",. c #756736",
"<. c #697437",
"1. c #787B38",
"2. c #4F3A41",
"3. c #573F45",
"4. c #5A3C44",
"5. c #444143",
"6. c #494543",
"7. c #5C4543",
"8. c #574846",
"9. c #5D534D",
"0. c #644549",
"q. c #7C5249",
"w. c #634C53",
"e. c #6A5557",
"r. c #656746",
"t. c #716C48",
"y. c #7B7648",
"u. c #717551",
"i. c #7D755A",
"p. c #465366",
"a. c #755F62",
"s. c #766C63",
"d. c #7C7564",
"f. c #8E2C2E",
"g. c #833938",
"h. c #92373A",
"j. c #9E7405",
"k. c #9C7409",
"l. c #97621C",
"z. c #A47C07",
"x. c #824D26",
"c. c #804D2B",
"v. c #885028",
"b. c #807431",
"n. c #964A46",
"m. c #984A46",
"M. c #815748",
"N. c #81584B",
"B. c #9F5049",
"V. c #8A5B56",
"C. c #A54D47",
"Z. c #A34E49",
"A. c #A95049",
"S. c #B25149",
"D. c #BB564D",
"F. c #84765D",
"G. c #A07557",
"H. c #8B766C",
"J. c #867A69",
"K. c #A37960",
"L. c #C8645A",
"P. c #D3675B",
"I. c #D66A5C",
"U. c #DD6A5B",
"Y. c #E36D5E",
"T. c #E77060",
"R. c #E87060",
"E. c #3A8207",
"W. c #3D8009",
"Q. c #44820C",
"!. c #49830E",
"~. c #448D0A",
"^. c #4B8C0D",
"/. c #518E0F",
"(. c #48900B",
"). c #51910E",
"_. c #4D8211",
"`. c #4E8910",
"'. c #538414",
"]. c #538B12",
"[. c #588E14",
"{. c #589213",
"}. c #64851A",
"|. c #6D8636",
" X c #78844D",
".X c #7E904E",
"XX c #7E8354",
"oX c #BA8B08",
"OX c #C59501",
"+X c #CA9A00",
"@X c #858457",
"#X c #88816A",
"$X c #938F64",
"%X c #8D8573",
"&X c #8C8078",
"*X c #958979",
"=X c #948B7A",
"-X c #B79072",
";X c #9C8D85",
":X c #9F9083",
">X c #A18E89",
",X c #A29484",
"<X c #A8968D",
"1X c #AA9791",
"2X c #AE9C93",
"3X c #B39F98",
"4X c #AFA18C",
"5X c #B6A299",
"6X c #BAA59D",
"7X c #BFAAA3",
"8X c #CFA994",
"9X c #D1AA96",
"0X c #C1ACA5",
"qX c #E0B4A1",
/* pixels */
"N Q._.u u Q.N u N !.a E.y r ~.s s u r s ~.~.s r i E.y y !.W.s ^.",
"u J L P '.P N P m a _.a W.J i a _.Q.!.a a i a B i B !.B m a y N ",
"_.I x L a L J Y C L d J N A N f N ~.L d K P d L a J y C k _.!.[.",
"_.B v '.L ` _ _ D Q _ v h D e _ Q z _ A h Q A Q z _ J _.l !.!.m ",
"u N L z ~ ! O./ ^ ^ Q ] ) ~ ^ ! ' O.] W ^ ^ W / O.! W e J a y u ",
"m V V I [ o.=.-.E *.o.+.;.*.;.T O.$.,.-.:.=.;.R -.o.[ P d q N '.",
"V a P A D o.*.*.%.>.r.s. X>.G %.J.&X%XXX;.<.u.<.R T D A P a C [.",
"`.s u W  .-.}.<.%XJ.J.,Xe.3.3.3.w.e.a.2XJ.#X2X,X%.U { Q u s _.C ",
"(.^.l / b H |.,X6X<X9.0.L.I.I.I.I.I.L.e.e.i.%X;XJ.<.H / l ^.^.P ",
"i ~.A S b o.<.2X,X8.Z.P.T.R.R.R.R.R.T.P.Z.| XX6X7Xs.$.D A ~.a V ",
"!.N Z { Z +.i.$X1.7.P.R.R.R.R.R.R.R.R.R.P.0.t.*X*Xr.F { Z Q.!._.",
"L P G o.R XX5X1Xe.Z.Y.R.R.R.R.R.R.R.R.R.Y.Z.| i.d.;.E o.U P P ^.",
"S L ` $.:.J.;X2Xe.A.U.R.R.R.R.R.R.R.R.R.U.A.9.,X5X@XT ) ` L C N ",
"s P ' { U @.s.:X7.C.D.U.Y.R.R.R.R.R.Y.U.D.C.w.6X5XF.Y ) ' P s [.",
"a Q.F #.b.=.H.>X8.m.S.S.D.U.I.I.I.U.D.S.S.m.w.1X*X<.*. .F Q.a a ",
"z g D @.F.1.>.| 2.4.C.S.S.B.8.6.8.B.S.S.C.2.2.| &. XF.O.D g c C ",
"d N H ( r.}.$.$ K.4.n.C.C.7.5.5.5.7.C.C.n.4.K.O R ;.| ) H N C '.",
"d a ! =.O.$.d.} G.4 6 7 m.m.n.n.n.m.m.7 6 4 G.* >.;.=.=.! a d [.",
"l w 3 =.E |.6X3X} : ..4 6 6 6 6 6 2.6 4 ..: 8.;Xs.&.;.#.3 w l Z ",
"I w x ) o.r.1X6X0X8.> ..c.c.X.X.X.c.c..., % %X*X:X#XK ' x w P P ",
"i N / ( @.#.d.2X0X&X& : ..x.v.v.v.x...: * d.:X5X4Xd.H ( / N s C ",
"!.N l [ o.#.i.%X*X9.-   X 1 X.x.X.1 X   = s.%X*X.Xt.+.] v Q.!._.",
"Q.N D D b s.3X6X$X* = } k.< < 2 < < k.} = ~ |.u.r.s.,.$.z u !.).",
"u J Z / *.y.*X>X| - - g.j.; z.oXz.; j.g.- - h *X<XF.=.' U '.I N ",
"_.'.N j ] *.:.N.9X-XO f.@ j.OX+XOXj.@ f.O -X9XH.6XH.) Q _./.!.[.",
"'.!.!.C F { O.M.qX8XO 8 1 l.oXOXoXl.1 8 O 8XqXV.H.y.%.V t n N m ",
"u C q q 3 o.-.=.M.q.- p.( k.l.l.l.k.( p.- q.M.*.:.*.) V q Z m n ",
"a N V D c Q ' ! ! j . 5.p.$ z.oXz.$ p.5.o 3 3 ! ` j z S m N N _.",
"C M Q L m v c z d c + f.h.5 } } } 5 h.f.+ e z 0 e q B L x M N {.",
"].N F V t M C C V J t # # c f f K V # + V C Z n L t t L Z J m L ",
").].N C n N ].{.'.L M /.].N C n N ].{.'.L M /.].N C n N ].{.'.L ",
"N /.N Y m t a N n V 9 p /.N Y M t a N n V 9 p /.N Y M t a Q.n C "
};
