/* XPM */
static char *bd5cb302edf04f21acbf35c76d1e4aa6utwHvfijs68BUCIB[] = {
/* columns rows colors chars-per-pixel */
"32 32 171 2 ",
"   c None",
".  c #07090A",
"X  c #0A090A",
"o  c #0F0809",
"O  c #0C0E0F",
"+  c #150707",
"@  c #190707",
"#  c #160A09",
"$  c #14100E",
"%  c #1B130E",
"&  c #070D11",
"*  c #101213",
"=  c #141215",
"-  c #1B1612",
";  c #1A1316",
":  c #1B1316",
">  c #1B1515",
",  c #17171A",
"<  c #1F1C19",
"1  c #20170F",
"2  c #211713",
"3  c #201914",
"4  c #2C2019",
"5  c #3F2613",
"6  c #1A1C22",
"7  c #321F25",
"8  c #3D3E2E",
"9  c #2C383D",
"0  c #403934",
"q  c #49313C",
"w  c #413B3E",
"e  c #6E3232",
"r  c #703A3C",
"t  c #4B463D",
"y  c #494A3A",
"u  c #7D4923",
"i  c #483341",
"p  c #4D3441",
"a  c #413D40",
"s  c #513642",
"d  c #533744",
"f  c #523844",
"g  c #553844",
"h  c #643D47",
"j  c #2B4659",
"k  c #2F4C62",
"l  c #324D64",
"z  c #484441",
"x  c #4B4541",
"c  c #4E4541",
"v  c #4E4542",
"b  c #544742",
"n  c #574942",
"m  c #524949",
"M  c #5C4C5D",
"N  c #4A5057",
"B  c #50565D",
"V  c #5D5658",
"C  c #774745",
"Z  c #7B4245",
"A  c #6D514D",
"S  c #6E504D",
"D  c #6D504F",
"F  c #6E504E",
"G  c #7E5D47",
"H  c #7F504C",
"J  c #63505A",
"K  c #65525A",
"L  c #65525B",
"P  c #6A5D5A",
"I  c #775E5F",
"U  c #7F615E",
"Y  c #765E60",
"T  c #7A6165",
"R  c #8C2D2D",
"E  c #8E3030",
"W  c #B53C37",
"Q  c #B37E10",
"!  c #A63E41",
"~  c #9D4840",
"^  c #9D4C49",
"/  c #87514E",
"(  c #88524F",
")  c #89524F",
"_  c #865D48",
"`  c #9A5455",
"'  c #A14A43",
"]  c #AF4D44",
"[  c #B84E41",
"{  c #B15048",
"}  c #B4514A",
"|  c #BF4F56",
" . c #AC5550",
".. c #B05956",
"X. c #B65C55",
"o. c #906A5D",
"O. c #9E7155",
"+. c #A37357",
"@. c #8C6A64",
"#. c #C05C53",
"$. c #C65E54",
"%. c #C95E52",
"&. c #C8645A",
"*. c #CC655B",
"=. c #D2675A",
"-. c #D5695C",
";. c #D6695C",
":. c #D6695D",
">. c #E66F5F",
",. c #E76F5F",
"<. c #E86E5D",
"1. c #E9705F",
"2. c #E76F60",
"3. c #E87060",
"4. c #E97060",
"5. c #E97160",
"6. c #E97667",
"7. c #A98115",
"8. c #AF8161",
"9. c #B48668",
"0. c #B48669",
"q. c #B98C6F",
"w. c #B38A73",
"e. c #B98C70",
"r. c #BD8E70",
"t. c #BC9173",
"y. c #BE9679",
"u. c #C89672",
"i. c #CB9B7A",
"p. c #CC9A79",
"a. c #B57F88",
"s. c #98859B",
"d. c #B4838E",
"f. c #A18397",
"g. c #B48895",
"h. c #B58B99",
"j. c #958AA3",
"k. c #9F8DA4",
"l. c #ACA3BE",
"z. c #A9A5BF",
"x. c #AAA5BE",
"c. c #C6959A",
"v. c #D1A181",
"b. c #D1A182",
"n. c #CFA994",
"m. c #DCAF9B",
"M. c #DDB79F",
"N. c #E3AE8A",
"B. c #D399A0",
"V. c #DFB3A0",
"C. c #D3B1B8",
"Z. c #E8A6A4",
"A. c #E9AFAF",
"S. c #E5BEA6",
"D. c #E4BFAA",
"F. c #F1C7AC",
"G. c #EFC7B0",
"H. c #F6CDB3",
"J. c #F5CEB6",
"K. c #F9CFB4",
"L. c #B9AAC4",
"P. c #B7ACC8",
"I. c #B8BADB",
"U. c #BEBEDD",
"Y. c #BFC1E0",
"T. c #CFC0C1",
"R. c #CAC0C8",
"E. c #CFCEE0",
"W. c #D0CFE0",
"Q. c #D2CFE0",
"!. c #E3DAE9",
/* pixels */
"                                                                ",
"                                                                ",
"                                                                ",
"                                                                ",
"                                                                ",
"                                                                ",
"                        g g g g g g g                           ",
"                    p h &.-.-.-.-.-.&.h p                       ",
"                  p ^ =.2.5.5.5.5.5.2.=.^ p                     ",
"                  s #.>.5.5.5.5.5.5.5.>.#.s                     ",
"                  d -.5.5.5.<.<.<.5.5.5.-.d                     ",
"                i Z $.>.1.6.Z.A.Z.6.1.>.$.Z i                   ",
"                7 ' } %.*.B.!.C.!.B.*.%.} ' 7                   ",
"                # ~ { ] ..L.c.X.c.L...] { ~ #                   ",
"                o r  .a.h.P.g.d.g.P.h.a. .r o                   ",
"              5 2 q ` l.I.U.Y.Y.Y.U.I.l.` q 2 5                 ",
"              1 +.S f M z.Q.Q.E.Q.Q.z.M f S +.1                 ",
"              % O.b S S U I L J L Y T S S b O.%                 ",
"                - 0 0.o.w.n e.p.q.m j.@.0.0 -                   ",
"                  3 8.v.T.c M.K.M.c R.v.8.3                     ",
"                    4 r.G.D.J.H.J.D.G.r.4                       ",
"                    $ G i.S.F.N.F.S.i.G $                       ",
"                  O 8 7._ P t.u.t.P _ 7.8 O                     ",
"                H x y Q [ f.V x V f.[ Q y x H                   ",
"              ( m.y.t u W | k.B k.| W u t y.m.(                 ",
"              / V.n.< > e ! s.N s.! e > < n.V./                 ",
"                ( C = j , ; 6 * 6 ; , j = C (                   ",
"                    X w a l k 9 k l a w X                       ",
"                    + R E ; & . & ; E R +                       ",
"                      @ @           @ @                         ",
"                                                                ",
"                                                                "
};
