/* XPM */
static char *b235986b78584bcbedc7563999461141Wn0TL1fs9Sik5tYb[] = {
/* columns rows colors chars-per-pixel */
"32 32 146 2 ",
"   c #3F3F3F",
".  c None",
"X  c #414141",
"o  c #434343",
"O  c #444444",
"+  c gray27",
"@  c #464646",
"#  c gray28",
"$  c #484848",
"%  c #494949",
"&  c gray29",
"*  c #4B4B4B",
"=  c #4C4C4C",
"-  c gray30",
";  c #4E4E4E",
":  c gray31",
">  c #505050",
",  c #515151",
"<  c gray32",
"1  c #535353",
"2  c gray33",
"3  c #555555",
"4  c #565656",
"5  c gray34",
"6  c #585858",
"7  c gray35",
"8  c #5B5B5B",
"9  c #5D5D5D",
"0  c gray37",
"q  c #5F5F5F",
"w  c gray38",
"e  c #626262",
"r  c #646464",
"t  c #656565",
"y  c gray40",
"u  c #676767",
"i  c #686868",
"p  c DimGray",
"a  c #6A6A6A",
"s  c gray42",
"d  c gray43",
"f  c #6F6F6F",
"g  c #727272",
"h  c gray45",
"j  c gray47",
"k  c #868686",
"l  c #898989",
"z  c gray54",
"x  c #8B8B8B",
"c  c gray55",
"v  c #8E8E8E",
"b  c gray56",
"n  c #909090",
"m  c gray57",
"M  c gray58",
"N  c #979797",
"B  c gray60",
"V  c #9B9B9B",
"C  c gray62",
"Z  c #9F9F9F",
"A  c #A2A2A2",
"S  c gray64",
"D  c #A4A4A4",
"F  c #A9A9A9",
"G  c #AAAAAA",
"H  c gray68",
"J  c #AEAEAE",
"K  c #AFAFAF",
"L  c gray69",
"P  c #B1B1B1",
"I  c #B2B2B2",
"U  c gray70",
"Y  c #B4B4B4",
"T  c gray71",
"R  c #B6B6B6",
"E  c #B7B7B7",
"W  c gray72",
"Q  c #B9B9B9",
"!  c gray73",
"~  c #BBBBBB",
"^  c #BCBCBC",
"/  c gray74",
"(  c gray",
")  c #C1C1C1",
"_  c gray76",
"`  c #C3C3C3",
"'  c gray77",
"]  c #C5C5C5",
"[  c #C6C6C6",
"{  c gray78",
"}  c #C8C8C8",
"|  c gray79",
" . c #CACACA",
".. c #CBCBCB",
"X. c gray80",
"o. c #CDCDCD",
"O. c #CECECE",
"+. c gray81",
"@. c #D0D0D0",
"#. c gray82",
"$. c #D2D2D2",
"%. c LightGray",
"&. c gray83",
"*. c #D5D5D5",
"=. c gray84",
"-. c #D7D7D7",
";. c #D8D8D8",
":. c gray85",
">. c #DADADA",
",. c gray86",
"<. c gainsboro",
"1. c #DDDDDD",
"2. c gray87",
"3. c #DFDFDF",
"4. c gray88",
"5. c #E1E1E1",
"6. c #E2E2E2",
"7. c gray89",
"8. c #E4E4E4",
"9. c gray90",
"0. c #E6E6E6",
"q. c #E7E7E7",
"w. c gray91",
"e. c #E9E9E9",
"r. c #EAEAEA",
"t. c gray92",
"y. c #ECECEC",
"u. c gray93",
"i. c #EEEEEE",
"p. c #EFEFEF",
"a. c gray94",
"s. c #F1F1F1",
"d. c gray95",
"f. c #F3F3F3",
"g. c #F4F4F4",
"h. c gray96",
"j. c #F6F6F6",
"k. c gray97",
"l. c #F8F8F8",
"z. c #F9F9F9",
"x. c gray98",
"c. c #FBFBFB",
"v. c gray99",
"b. c #FDFDFD",
"n. c #FEFEFE",
"m. c white",
/* pixels */
"m.m.m.m.m.m.m.m.m.m.m.m.m.m.m.m.m.m.m.m.m.m.m.m.m.m.m.m.m.m.m.m.",
"m.m.m.m.m.m.m.m.m.m.m.m.m.m.m.m.m.m.m.m.m.m.m.m.m.m.m.m.m.m.m.m.",
"m.m.m.m.m.m.m.m.m.m.m.m.m.m.m.u.<.f.g.z.m.m.m.m.m.m.m.m.m.m.m.m.",
"m.m.m.m.m.m.m.m.m.m.m.m.m.z.l u d p A u.g.m.m.m.m.m.m.m.m.m.m.m.",
"m.m.m.m.m.m.m.m.m.m.m.m.m.l h ^ { L d A w.g.m.m.m.m.m.m.m.m.m.m.",
"m.m.m.m.m.m.m.m.m.m.m.m.f.w ! X.| X.C d @.u.z.m.m.m.m.m.m.m.m.m.",
"m.m.m.m.m.m.m.m.m.m.m.m.w.w { X.| X.L p E w.z.m.m.m.m.m.m.m.m.m.",
"m.m.m.m.m.m.m.m.m.m.m.m.0.0 | X.X.@.E u K 6.g.m.m.m.m.m.m.m.m.m.",
"m.m.m.m.m.m.m.m.m.m.m.m.0.0 | @.X.@.E u K 6.g.m.m.m.m.m.m.m.m.m.",
"m.m.m.m.m.m.m.m.m.m.m.m.0.8 X.@.@.&.E w K 6.g.m.m.m.m.m.m.m.m.m.",
"m.m.m.m.m.m.m.m.m.m.m.m.0.8 X.&.@.&.E w K 6.g.m.m.m.m.m.m.m.m.m.",
"m.m.m.m.m.m.m.m.m.m.m.m.0.8 @.&.&.;.! w K 6.g.m.m.m.m.m.m.m.m.m.",
"m.m.m.m.m.g.w.0.0.0.0.0.X.4 @.;.&.;.! w D X.<.0.0.0.0.f.z.z.m.m.",
"m.m.m.z.j * : : : 1 1 1 1 1 @.;.;.;.! 8 0 0 0 w w u u u A u.g.z.",
"m.m.m.h 0 _ @.&.@.@.&.&.&.@.<.;.;.<.<.&.;.;.;.;.;.;.;.^ p C w.f.",
"m.m.w.# | <.;.;.;.;.;.<.<.<.<.<.<.<.<.<.<.6.6.6.6.6.6.0.L p | w.",
"m.m.;.* ;.<.;.;.;.<.<.<.<.<.<.<.<.<.<.6.6.6.6.6.6.6.6.0.X.w K <.",
"m.m.u.o E 6.<.6.<.6.6.6.6.6.6.6.6.6.6.0.0.0.0.0.0.0.w.u.C p G ;.",
"m.m.g.l * V ! ! ! ! ! ! ^ ! 6.6.6.0.;.^ _ _ _ _ { { { M w c L 6.",
"m.m.z.u.m * o o # # # * : # <.0.0.0.^ : 4 4 4 4 4 8 8 u m K &.w.",
"m.m.m.g.w.@.E K K K K K A * 6.0.0.w._ 1 V A G K K K K L ! ;.u.g.",
"m.m.m.m.g.u.w.6.6.6.6.6.X.* 6.w.w.u._ 1 A X.<.6.6.6.6.0.w.f.g.m.",
"m.m.m.m.m.z.z.g.g.g.g.g.<.# 0.w.w.u.{ : G <.u.g.g.g.g.g.z.m.m.m.",
"m.m.m.m.m.m.m.m.m.m.m.m.6.# 0.u.w.u.{ : K 6.g.m.m.m.m.m.m.m.m.m.",
"m.m.m.m.m.m.m.m.m.m.m.m.6.o w.u.u.f.{ * K 6.g.m.m.m.m.m.m.m.m.m.",
"m.m.m.m.m.m.m.m.m.m.m.m.6.o w.f.f.f.{ # K 6.g.m.m.m.m.m.m.m.m.m.",
"m.m.m.m.m.m.m.m.m.m.m.m.6.o u.g.f.g.{ * K 6.g.m.m.m.m.m.m.m.m.m.",
"m.m.m.m.m.m.m.m.m.m.m.m.f.  _ z.z.m.c 4 L 0.g.m.m.m.m.m.m.m.m.m.",
"m.m.m.m.m.m.m.m.m.m.m.m.g.c # L &.M # l ! w.z.m.m.m.m.m.m.m.m.m.",
"m.m.m.m.m.m.m.m.m.m.m.m.z.u.l #   : k K ;.f.m.m.m.m.m.m.m.m.m.m.",
"m.m.m.m.m.m.m.m.m.m.m.m.m.g.w.| K G L &.u.g.m.m.m.m.m.m.m.m.m.m.",
"m.m.m.m.m.m.m.m.m.m.m.m.m.z.f.w.<.;.6.w.g.m.m.m.m.m.m.m.m.m.m.m."
};
