/* XPM */
static char *a3f5ee3dd89c4032e37bccf0ae76291b0JOlY6lOSsKBn7hr[] = {
/* columns rows colors chars-per-pixel */
"32 32 213 2 ",
"   c #181B0D",
".  c #151617",
"X  c #1B1415",
"o  c #221B17",
"O  c #172112",
"+  c #263609",
"@  c #252516",
"#  c #2B2C14",
"$  c #1A1C22",
"%  c #2D2D2B",
"&  c #393728",
"*  c #3F3F30",
"=  c #463C29",
"-  c #413934",
";  c #47393B",
":  c #6F3232",
">  c #703A3C",
",  c #395D0F",
"<  c #3F4E1E",
"1  c #3D5C13",
"2  c #3B531A",
"3  c #336709",
"4  c #3C660D",
"5  c #346B09",
"6  c #3C6C0B",
"7  c #367807",
"8  c #3C7A07",
"9  c #3C740B",
"0  c #3D7B09",
"q  c #3D6412",
"w  c #3E6912",
"e  c #3D7211",
"r  c #3D4323",
"t  c #434C1E",
"y  c #455C17",
"u  c #43541D",
"i  c #48521C",
"p  c #445B1C",
"a  c #4A5C1D",
"s  c #56591E",
"d  c #416E0E",
"f  c #43750D",
"g  c #437A0B",
"h  c #4A7C0F",
"j  c #416413",
"k  c #436B12",
"l  c #4C6D15",
"z  c #44631A",
"x  c #4B6719",
"c  c #4A621C",
"v  c #52691A",
"b  c #5C6D1D",
"n  c #447311",
"m  c #4A7414",
"M  c #487716",
"N  c #4D7C14",
"B  c #517E15",
"V  c #5A7219",
"C  c #547B18",
"Z  c #656E1E",
"A  c #657A1D",
"S  c #454426",
"D  c #444C22",
"F  c #4C4C23",
"G  c #454429",
"H  c #4A4329",
"J  c #544C23",
"K  c #574829",
"L  c #594B29",
"P  c #445321",
"I  c #4C5724",
"U  c #535223",
"Y  c #595424",
"T  c #5A5B24",
"R  c #4B483B",
"E  c #574839",
"W  c #614C2B",
"Q  c #774F2A",
"!  c #645425",
"~  c #67582A",
"^  c #725C34",
"/  c #5B6421",
"(  c #576925",
")  c #5B7325",
"_  c #587032",
"`  c #676726",
"'  c #75612C",
"]  c #786929",
"[  c #687826",
"{  c #75792E",
"}  c #676736",
"|  c #756736",
" . c #6A7537",
".. c #413D40",
"X. c #523944",
"o. c #2B4659",
"O. c #314D63",
"+. c #4B4441",
"@. c #554342",
"#. c #594948",
"$. c #5E5844",
"%. c #5C4C5D",
"&. c #4A5057",
"*. c #59565A",
"=. c #784744",
"-. c #6E504E",
";. c #7D5C47",
":. c #6E4E53",
">. c #675658",
",. c #775E5F",
"<. c #666847",
"1. c #716B48",
"2. c #7A764A",
"3. c #77675C",
"4. c #697152",
"5. c #7D7359",
"6. c #765E60",
"7. c #786964",
"8. c #7C7666",
"9. c #8C2D2D",
"0. c #8E2F30",
"q. c #B53C37",
"w. c #B27E10",
"e. c #807431",
"r. c #A53E41",
"t. c #9D4A44",
"y. c #835949",
"u. c #945655",
"i. c #A84C44",
"p. c #B84F41",
"a. c #B35149",
"s. c #AC5550",
"d. c #B75656",
"f. c #8B675B",
"g. c #84765D",
"h. c #9E7155",
"j. c #A27356",
"k. c #876C68",
"l. c #887969",
"z. c #937569",
"x. c #C55D53",
"c. c #CA655B",
"v. c #D2665A",
"b. c #D5695C",
"n. c #E76F5F",
"m. c #E86E5D",
"M. c #E77060",
"N. c #E97161",
"B. c #3C8108",
"V. c #44820C",
"C. c #49830E",
"Z. c #478C0C",
"A. c #518E0F",
"S. c #48900B",
"D. c #51910E",
"F. c #4D8211",
"G. c #4E8910",
"H. c #538414",
"J. c #538B12",
"K. c #588E14",
"L. c #589213",
"P. c #64851A",
"I. c #6A8530",
"U. c #7C8B4D",
"Y. c #7E8456",
"T. c #A98115",
"R. c #85875B",
"E. c #89826B",
"W. c #958762",
"Q. c #8D8276",
"!. c #958A79",
"~. c #AF8162",
"^. c #B6896C",
"/. c #B98D71",
"(. c #BD9476",
"). c #CB9978",
"_. c #B57F89",
"`. c #9C8D87",
"'. c #9F9083",
"]. c #98859B",
"[. c #A29483",
"{. c #A7948C",
"}. c #A88394",
"|. c #B48998",
" X c #A89690",
".X c #AD9B92",
"XX c #B29F97",
"oX c #AFA18C",
"OX c #B8A49A",
"+X c #9C8DA4",
"@X c #BFAAA3",
"#X c #ABA4BE",
"$X c #C6959A",
"%X c #D2A182",
"&X c #D0A994",
"*X c #DDB49D",
"=X c #E2AE8A",
"-X c #D399A0",
";X c #C1ABA5",
":X c #D3B1B8",
">X c #E8A9A8",
",X c #E3BBA5",
"<X c #F1C6AB",
"1X c #EEC7B0",
"2X c #F6CDB5",
"3X c #B8ACC6",
"4X c #BBBCDC",
"5X c #BFC0DF",
"6X c #BFC1E0",
"7X c #CDC0C5",
"8X c #CFCEE0",
"9X c #D1CFE0",
"0X c #E3DBE9",
/* pixels */
"g V.F.6 6 V.g 6 g C.9 B.5 3 Z.0 0 6 3 0 Z.S.0 3 7 B.5 5 C.B.0 Z.",
"6 n m N H.N g N f 9 F.9 B.n 7 9 F.V.C.9 7 7 9 h 7 h C.h f 9 5 g ",
"F.B i m 9 m n C k m q n g z g q g V.m w m N w m 9 n 5 k u F.C.K.",
"F.h a H.m I P P c D P a r c 2 P F u P z r D z D u P n F.y C.C.f ",
"6 g m u G F ~ J H H D Y L H H F U ~ Y G H H S J ~ F S 2 n 9 5 6 ",
"f j j B T ! ' ] A ` ! ~ ) ` ` / T ( } ] [ ' [ A ] ! T N q 1 g H.",
"j 9 N z c ! ` ` ) } $.3.$.@.@.@.#.#.>.2.}  .2. .A Z c z N 9 k K.",
"G.0 6 S W ] P. .E.8.#.:.c.b.b.b.b.b.c.:.#.8..X[._ V Y D 6 0 F.k ",
"S.G.y J s b I.[.XX>.t.v.M.N.N.N.N.N.M.v.t.#.E.!.l. .b J y G.Z.N ",
"7 Z.z x s !  ..X[.#.x.n.N.N.N.N.N.N.N.m.x.@.Y.OX@X7./ c z Z.9 j ",
"C.g l T l ^ g.W.{ @.b.N.N.N.m.m.m.N.N.N.b.@.1.!.!.<.v T l V.C.F.",
"m N V ! A Y.OX.X>.=.x.n.N.N.>X>X>XN.N.n.x.=.R 5.8.[ A ! V N N S.",
"x m I / [ k.`..X; i.a.x.c.-X0X:X0X-Xc.x.a.i.= [.OXR.Z L I m k g ",
"0 N U T V ^ 7.[.& t.a.i.d.3X$Xd.$X3Xd.i.a.t.; ;XOXg.C L U N 0 K.",
"9 V.v ^ e.' k.[.% > s._.|.3X|.|.|.3X|._.s.> -  X!. .` W v V.9 9 ",
"u e c ~ g.{ } E o ; u.#X4X4X5X6X5X4X4X#Xu.; o ; _ U.g.~ c e p k ",
"w g b K $.P.( # j.-.X.%.#X9X9X8X9X9X#X%.X.-.j.@ A [ E L b g k H.",
"q 9 F ' ~ ( 8.R h.@.-.-.3.,.>.>.>.6.7.-.-.@.h.& } [ ' ' F 9 w K.",
"y 2 = ' A I.OXXXR - ^.f./.@./.)./.#.+Xk.^.- @.`.7._ [ ^ = 2 y l ",
"B 2 i W ! <. XOX;X#.~.%X7X+.*X2X*X+.7X%X~.r Q.!.'.E.m I i 2 N N ",
"7 g J K Q ^ 8.XX;XQ.& /.1X,X2X2X2X1X1X/.- 8.'.OXoX8.b K J g 7 k ",
"C.g y T ! ^ 5.Q.!.4.% ;.).,X<X=X<X,X).;.@ 8.!.!.U.1.~ Y a V.C.F.",
"V.g c c s 7.OXOXR.& * T.y.>.(.).(.>.y.T.* G  .4.<.3.| / i 6 C.D.",
"6 n l J ` 2.!.{.f.+.R w.p.}.*.+.*.}.p.w.R +.;.!.{.g.' U V H.B g ",
"F.H.g t Y ` [ y.*X(.R Q q.d.+X*.+Xd.q.Q R (.*Xz.OXz.L D F.A.C.K.",
"H.C.C.k v T ! y.,X&Xo X : r.].&.].r.: X o &X,Xu.z.2.) j 4 d g f ",
"6 k 1 1 = ! ] ' y.=.. o.. X $ . $ X . o.X =.y.` [ ` K j 1 l f d ",
"9 g j c p D U F F t   ; ..O.O.% O.O...;   = H F I < u x f g g H.",
"k f F m f a p u q p @ 9.0.@ O   O @ 0.9.@ 2 u < 2 1 h m i n g L.",
"J.g v j 4 f k k j n 4 + + 1 q 4 f 4 + + j k l d m 4 4 m l n f m ",
"D.J.g k d g J.L.H.m f A.J.g k d g J.L.H.m f A.J.g k d g J.L.H.m ",
"g A.g C f 4 9 g d j , 8 A.g C f 4 9 g d j , 8 A.g C f 4 9 V.d k "
};
