/* XPM */
static char *bf81eb97785c4a57913f687f2e80ceb1iPJnRVrSxEhPhWup[] = {
/* columns rows colors chars-per-pixel */
"32 32 221 2 ",
"   c #0C0E0D",
".  c #19160A",
"X  c #291D0A",
"o  c #271D1B",
"O  c #311F1E",
"+  c #1E2108",
"@  c #242909",
"#  c #2D2C0E",
"$  c #292615",
"%  c #2E3534",
"&  c #573419",
"*  c #463D28",
"=  c #553725",
"-  c #473739",
";  c #54373E",
":  c #5B393C",
">  c #6B333B",
",  c #385C0F",
"<  c #3D4C1C",
"1  c #395317",
"2  c #3D5C13",
"3  c #3E541C",
"4  c #336709",
"5  c #3C670D",
"6  c #346B09",
"7  c #3C6C0B",
"8  c #377707",
"9  c #3C7A07",
"0  c #3C740B",
"q  c #3D7B09",
"w  c #3D6412",
"e  c #3E6912",
"r  c #3D7211",
"t  c #3D4424",
"y  c #435017",
"u  c #445D16",
"i  c #43541D",
"p  c #4A521D",
"a  c #445B1B",
"s  c #4A5B1D",
"d  c #56591E",
"f  c #734919",
"g  c #416E0E",
"h  c #43750D",
"j  c #48750F",
"k  c #437A0B",
"l  c #4A7E0F",
"z  c #416413",
"x  c #436B12",
"c  c #4B6D15",
"v  c #44631A",
"b  c #4B6719",
"n  c #4A621C",
"m  c #52681A",
"M  c #556C1C",
"N  c #5D6C1C",
"B  c #447311",
"V  c #4A7414",
"C  c #487716",
"Z  c #4D7C14",
"A  c #517E15",
"S  c #577318",
"D  c #5D731B",
"F  c #547B18",
"G  c #636C1D",
"H  c #627A1C",
"J  c #697A1D",
"K  c #444326",
"L  c #444C22",
"P  c #4B4C23",
"I  c #474428",
"U  c #4B4429",
"Y  c #544C23",
"T  c #574829",
"R  c #594B29",
"E  c #445221",
"W  c #4C5724",
"Q  c #535224",
"!  c #595424",
"~  c #565C23",
"^  c #5C5B23",
"/  c #424637",
"(  c #5B4937",
")  c #664628",
"_  c #784829",
"`  c #645425",
"'  c #66572A",
"]  c #6C5C2D",
"[  c #75532A",
"{  c #634933",
"}  c #6F5535",
"|  c #735934",
" . c #5A6222",
".. c #556924",
"X. c #5B7525",
"o. c #577034",
"O. c #666625",
"+. c #6B6C23",
"@. c #75612C",
"#. c #786929",
"$. c #677726",
"%. c #727726",
"&. c #686735",
"*. c #756736",
"=. c #667632",
"-. c #6B733B",
";. c #7B7A39",
":. c #533C46",
">. c #464A47",
",. c #5A4948",
"<. c #5A4954",
"1. c #595358",
"2. c #784C4A",
"3. c #664D53",
"4. c #665455",
"5. c #656746",
"6. c #726D49",
"7. c #7A7447",
"8. c #6B645E",
"9. c #717551",
"0. c #7D7656",
"q. c #46566D",
"w. c #665B63",
"e. c #735D60",
"r. c #5C687F",
"t. c #746D63",
"y. c #796C64",
"u. c #7C7663",
"i. c #766770",
"p. c #902F31",
"a. c #86571A",
"s. c #9A6D0D",
"d. c #A6790C",
"f. c #A47E1F",
"g. c #844E27",
"h. c #807431",
"j. c #8B3D4E",
"k. c #934F4F",
"l. c #8B5B54",
"z. c #A34C47",
"x. c #A44D4A",
"c. c #A7504A",
"v. c #B25149",
"b. c #BB564C",
"n. c #84785D",
"m. c #9F596F",
"M. c #8C6D67",
"N. c #847867",
"B. c #917E6C",
"V. c #877D72",
"C. c #917F73",
"Z. c #B46D6D",
"A. c #C4655D",
"S. c #D2675B",
"D. c #D5695C",
"F. c #DE6A5B",
"G. c #E26D5E",
"H. c #E86F5F",
"J. c #E67567",
"K. c #E87060",
"L. c #E27F77",
"P. c #3C8108",
"I. c #44820C",
"U. c #49830E",
"Y. c #478C0C",
"T. c #518E0F",
"R. c #48900B",
"E. c #51910E",
"W. c #4E8211",
"Q. c #4E8910",
"!. c #538413",
"~. c #548B12",
"^. c #588E14",
"/. c #589213",
"(. c #64851A",
"). c #668327",
"_. c #6A8435",
"`. c #7A8636",
"'. c #788548",
"]. c #7E8A54",
"[. c #AF8204",
"{. c #BA8907",
"}. c #C79701",
"|. c #858657",
" X c #8B935D",
".X c #8A826B",
"XX c #938F64",
"oX c #8D8373",
"OX c #968879",
"+X c #958A7B",
"@X c #B98968",
"#X c #A89D7C",
"$X c #C38D67",
"%X c #C59578",
"&X c #D59E76",
"*X c #D59F7E",
"=X c #83788F",
"-X c #9C8C84",
";X c #A28E83",
":X c #A19283",
">X c #A69988",
",X c #A99790",
"<X c #AE9B92",
"1X c #B39F96",
"2X c #AFA18C",
"3X c #B5A297",
"4X c #BBA69D",
"5X c #A58BA4",
"6X c #AD9BAD",
"7X c #BEAAA3",
"8X c #AAA3BC",
"9X c #CBA994",
"0X c #E3B79E",
"qX c #C2ACA7",
"wX c #E4BBA5",
"eX c #F2CAB2",
"rX c #D7BBC4",
"tX c #CBC5D2",
"yX c #E2C2C9",
"uX c #D5CEE1",
"iX c #E4E1F3",
/* pixels */
"k I.W.7 7 I.k 7 k U.0 P.8 4 Y.q q 7 4 q Y.R.q 4 8 P.6 6 U.P.q Y.",
"7 B V Z !.Z k Z h 0 W.0 P.B 8 0 U.I.U.0 0 8 0 l 8 l U.l h 0 6 k ",
"W.A y V 0 V B S x V w B k v k w k I.V e V Z e V 0 B 6 x y W.U.^.",
"W.l s !.V W E E n L E s t n 3 E L i E v t L v L i E B W.a U.U.h ",
"7 k V i K P ' Y U U L ! R I U P Q ] ! I U U I Y ' P K 3 B 0 6 7 ",
"h z z A ~ ' @.#.J O.` ] $.+.+.G ' ..*.+.+.@.$.J #.` ~ Z w 2 k !.",
"z 0 A v n ` O.O.M &.5.t.].&...X.N.oXoX0.=.=.9.-.H G n v Z 0 x ^.",
"Q.q 7 K ` #.(.=..XV.V.<X-X,.:.:.3.4.3.e.N.u.<X:XX.D ! L 7 q W.x ",
"R.Q.u Y d N _.:X4X3XV.V.3.c.S.D.D.D.D.A.3.,.N.+XV.=.N Y u Q.Y.Z ",
"8 Y.v b d ` -.<X>X|.N.3.c.F.K.K.K.K.K.K.S.z.,.1X7Xt. .n v Y.0 z ",
"U.k c ^ c ] 0.XX`._.y.3.S.K.K.K.K.K.K.K.K.S.,.V.+X5.m ^ c I.U.W.",
"V Z M ` H ].3X3X#XN.w.5XL.K.K.K.K.K.K.K.K.G.z.,.t.=.J ` S Z Z R.",
"b V W  .%.N.;X3X:Xw.r.Z.yXJ.H.K.K.K.K.K.K.F.c.,.<X|.G R W V x k ",
"q Z Q ^ D } i.-X4.tXuXZ.rXA.F.G.G.G.G.G.F.b.z.3.<Xn.F R Q Z q ^.",
"0 I.m | h.@.N.,X1.uXiX6XZ.v.v.v.v.v.v.v.v.v.z.3.oX-.O.{ m I.0 0 ",
"i r n ] n.;.5.N.w.8XuXm.x.v.v.v.v.v.v.v.v.v.z.:.o.'.n.' n r a x ",
"e k N T 5.)...6.+Xi.8X5Xj.z.z.z.z.z.z.z.z.z.: = D =.( R D k x !.",
"w 0 P @.' ..u.+X'.'.<.:.- :.:.; ; ; ; ; ; : _ ( &.G @.@.P 0 e ^.",
"u 1 * @.J _.4XqX#X'.2.> o =X2.= _ ) _ _ _ _ { -Xt.=.$.| * 1 z c ",
"A 1 p { ` 5.,X4XqX3Xl.@X- tX%X[ $X@X) g.g.& - +X:X.XV Q p 1 Z Z ",
"8 k Y T [ | u.<X7X-X%X0XwXeXeX&X&X@X) _ _ ( oX3X2Xu.N T Y k q x ",
"U.k u ~ ` | 0.+X+X8.N.M.wXwX*X&X@X) f X $ t.oX+X].6.] ! a I.U.W.",
"I.k n n d y.3X4XXX'.,X;Xl.k.l.%X[ & f d.} |.`.9.5.t.*. .i 7 U.E.",
"7 B c Y O.7.+X<X>X).C.>X+Xk.5X6Xf.a.{.}.d.Y =.:X,Xn.@.Q S !.A k ",
"W.!.k E ! +.%.-.N.7.:X4X8.p.- 1./ X [.{.a.# C.qX7XB.R L W.T.U.^.",
"!.U.U.x m ^ ^ N F %.n. X>.O 9X9X>.. f s.d.# 7.B.C.7.X.z 5 g k h ",
"7 x 2 2 * ` #.+.N H +.&./ o @X@X>.% X s.f #  .O.%.O.T u 2 c h g ",
"0 k z n a L Q P P p a s Q % o O q.q.  . $ * K P W E i b h k k W.",
"x j P c h s a i e a 1 z < # p.p.p.> @ , E 3 i < 3 2 l V p j k /.",
"~.k m z 5 h x x z B g !.h u @ + @ @ z z c x c g V 5 5 j c B h V ",
"E.~.k x g k ~./.!.V h T.~.k e 5 0 W./.!.V h T.~.k x g k ~./.!.V ",
"k T.k F h 5 0 k g z , 9 T.k F h 5 0 k g z , 9 T.k F h 5 0 I.g x "
};
