/* XPM */
static char *efcdab9258104a19c72dfce96f0c6c67KMhkmYiAZTmLean1[] = {
/* columns rows colors chars-per-pixel */
"32 32 200 2 ",
"   c None",
".  c #0E0509",
"X  c #0A0C0D",
"o  c #120507",
"O  c #180606",
"+  c #190707",
"@  c #140F00",
"#  c #110A04",
"$  c #130C06",
"%  c #180F07",
"&  c #1A0D0D",
"*  c #161101",
"=  c #1A1006",
"-  c #16130E",
";  c #1F1D19",
":  c #241B0B",
">  c #291E0A",
",  c #2D1D08",
"<  c #2D1A16",
"1  c #211C1F",
"2  c #2E1F1D",
"3  c #311F1E",
"4  c #2C2F2E",
"5  c #2F3737",
"6  c #2D373B",
"7  c #323838",
"8  c #553613",
"9  c #533119",
"0  c #543219",
"q  c #56341A",
"w  c #593619",
"e  c #4E3120",
"r  c #583522",
"t  c #423133",
"y  c #453B37",
"u  c #4E333D",
"i  c #4F343C",
"p  c #4F343D",
"a  c #40383E",
"s  c #473E3E",
"d  c #52363D",
"f  c #54373E",
"g  c #5C393B",
"h  c #59393C",
"j  c #6A283A",
"k  c #6C3E3C",
"l  c #604010",
"z  c #6B4615",
"x  c #75481C",
"c  c #784D19",
"v  c #434437",
"b  c #664024",
"n  c #6E4120",
"m  c #684124",
"M  c #654029",
"N  c #6E472B",
"B  c #744422",
"V  c #754522",
"C  c #754627",
"Z  c #71452A",
"A  c #764829",
"S  c #7F4C2A",
"D  c #7F4C2B",
"F  c #7C4E2F",
"G  c #76502A",
"H  c #785033",
"J  c #4D3340",
"K  c #4D3441",
"L  c #4E3441",
"P  c #523541",
"I  c #543744",
"U  c #593742",
"Y  c #543844",
"T  c #553844",
"R  c #5E3A44",
"E  c #523B49",
"W  c #503F4E",
"Q  c #533F4F",
"!  c #633D47",
"~  c #733E40",
"^  c #434644",
"/  c #474D4D",
"(  c #4F4051",
")  c #4C4356",
"_  c #544656",
"`  c #5F4452",
"'  c #534C5E",
"]  c #545555",
"[  c #7A4E4D",
"{  c #5B4D61",
"}  c #41546C",
"|  c #4B586E",
" . c #5C687F",
".. c #852727",
"X. c #962C2D",
"o. c #8D3133",
"O. c #97353A",
"+. c #81521A",
"@. c #8B5B19",
"#. c #956C07",
"$. c #9E7604",
"%. c #9B651D",
"&. c #A1740B",
"*. c #AB7E08",
"=. c #A47E1F",
"-. c #834D26",
";. c #854E27",
":. c #8D384B",
">. c #8B3D4E",
",. c #874E4E",
"<. c #994946",
"1. c #9B4A47",
"2. c #88514E",
"3. c #8F564E",
"4. c #935F5B",
"5. c #A04845",
"6. c #A34C47",
"7. c #A44C47",
"8. c #A44D47",
"9. c #A14D49",
"0. c #A34F4B",
"q. c #A44F4B",
"w. c #A94A48",
"e. c #A4504B",
"r. c #A95049",
"t. c #B05048",
"y. c #B15048",
"u. c #B1524A",
"i. c #B5534A",
"p. c #B6534B",
"a. c #B6544B",
"s. c #BB564C",
"d. c #97625C",
"f. c #9F596F",
"g. c #AD6C6E",
"h. c #B56462",
"j. c #BB7778",
"k. c #C0665F",
"l. c #C8645A",
"z. c #D0665A",
"x. c #D2675A",
"c. c #D2675B",
"v. c #D3675B",
"b. c #D5695C",
"n. c #DD695A",
"m. c #DD6A5B",
"M. c #DE6A5B",
"N. c #DE6A5C",
"B. c #E26D5D",
"V. c #E26D5E",
"C. c #E86F5F",
"Z. c #E77060",
"A. c #E87060",
"S. c #E97060",
"D. c #E97160",
"F. c #E97161",
"G. c #EA7060",
"H. c #E47A6E",
"J. c #E27F77",
"K. c #AF8204",
"L. c #B58606",
"P. c #BF8C08",
"I. c #C79701",
"U. c #B48367",
"Y. c #B08667",
"T. c #BF8B65",
"R. c #BF8B66",
"E. c #BE8B67",
"W. c #B68D6F",
"Q. c #C38D67",
"!. c #C29173",
"~. c #C8997D",
"^. c #D09B75",
"/. c #D79F77",
"(. c #D09A78",
"). c #D59F7E",
"_. c #83788F",
"`. c #9B859F",
"'. c #A68BA0",
"]. c #A38AA7",
"[. c #AB9DA2",
"{. c #B899AF",
"}. c #A59CB7",
"|. c #AAA3BC",
" X c #C6A28D",
".X c #CFAF9A",
"XX c #E3B79E",
"oX c #E1B6A2",
"OX c #E8BDA6",
"+X c #E2BEA8",
"@X c #EFC3A7",
"#X c #F5D0BC",
"$X c #D7BBC4",
"%X c #CAC0C6",
"&X c #C6C4D4",
"*X c #D2CCDB",
"=X c #E2C2C9",
"-X c #D6CCE0",
";X c #D3D0E2",
":X c #E4E1F3",
/* pixels */
"                                                                ",
"                                                                ",
"                                                                ",
"                                                                ",
"                                                                ",
"                                                                ",
"                                                                ",
"                          L I T T T T T                         ",
"                        U e.z.b.b.b.b.l.! L                     ",
"                      J q.N.S.S.S.S.S.Z.z.0.L                   ",
"                      ` z.S.S.S.S.S.S.S.S.z.R                   ",
"                    ) '.J.S.S.S.S.S.S.S.S.V.0.L                 ",
"                  '  .g.=XH.C.S.S.S.S.S.S.n.r.L                 ",
"                _ &X*Xj.$Xk.n.V.V.V.V.V.n.s.6.L                 ",
"                _ ;X:X{.h.t.i.a.i.i.i.a.i.t.8.L                 ",
"                ( |.-Xf.w.t.t.t.t.t.t.t.t.t.1.u                 ",
"                  { }.].>.5.8.8.6.8.6.6.8.1.g e                 ",
"                    Q Q a E P p d p f f f h Z q                 ",
"                    ~ k 1 _.[ r F M A S S C 9                   ",
"                    3.U.y %X~.H Q.T.m -.;.0 $                   ",
"                    (.XX+X#X@X^./.T.b V V 0                     ",
"                      d.oXOX)./.T.N n , %                       ",
"                        2.,.4.!.G w z $.l                       ",
"                          :.`.[.=.+.L.I.*.8                     ",
"                        s o.t ] v > K.P.@.=                     ",
"                        7 2  X.X^ - x %.&.*                     ",
"                        5 ; Y.W./ 6 : #.c #                     ",
"                          4 < 3 | } X @ #                       ",
"                          & ..X.O.j .                           ",
"                            + + + o                             ",
"                                                                ",
"                                                                "
};
