/* XPM */
static char *_3ba02077e1242edbb6cd103382ae421n4TWOhBxWUS2P27O[] = {
/* columns rows colors chars-per-pixel */
"32 32 222 2 ",
"   c #11110E",
".  c #271D09",
"X  c #271D1B",
"o  c #311F1E",
"O  c #1E250A",
"+  c #22290A",
"@  c #2C3011",
"#  c #37322B",
"$  c #2D373B",
"%  c #573419",
"&  c #463E28",
"*  c #583A22",
"=  c #47363A",
"-  c #54373E",
";  c #5B393C",
":  c #6B333B",
">  c #395D0F",
",  c #3B4A1B",
"<  c #395317",
"1  c #3D5D13",
"2  c #3E541C",
"3  c #336709",
"4  c #3C670D",
"5  c #346B09",
"6  c #3C6C0B",
"7  c #377707",
"8  c #3C7A07",
"9  c #3C740B",
"0  c #3D7B09",
"q  c #3D6412",
"w  c #3E6912",
"e  c #3D7211",
"r  c #3D4424",
"t  c #394136",
"y  c #425217",
"u  c #445D17",
"i  c #43541D",
"p  c #4A521D",
"a  c #445B1C",
"s  c #4A5C1D",
"d  c #56591E",
"f  c #734919",
"g  c #416E0E",
"h  c #43750D",
"j  c #48750F",
"k  c #437A0B",
"l  c #4A7E0F",
"z  c #416413",
"x  c #436B12",
"c  c #4B6D15",
"v  c #44631A",
"b  c #4B6719",
"n  c #4A621C",
"m  c #52681A",
"M  c #556C1C",
"N  c #5D6C1C",
"B  c #447311",
"V  c #4A7414",
"C  c #487716",
"Z  c #4D7C14",
"A  c #517E15",
"S  c #5A7319",
"D  c #547B18",
"F  c #636C1D",
"G  c #627A1D",
"H  c #697A1D",
"J  c #444326",
"K  c #444C22",
"L  c #4B4C23",
"P  c #464428",
"I  c #4C4329",
"U  c #544C23",
"Y  c #584928",
"T  c #5A4B2A",
"R  c #455322",
"E  c #4C5724",
"W  c #535223",
"Q  c #595424",
"!  c #565C23",
"~  c #5C5B23",
"^  c #434536",
"/  c #5A4939",
"(  c #664628",
")  c #784829",
"_  c #645425",
"`  c #665829",
"'  c #6C5C2D",
"]  c #75532A",
"[  c #654C35",
"{  c #6F5535",
"}  c #785033",
"|  c #725C34",
" . c #586622",
".. c #5B7527",
"X. c #577033",
"o. c #636524",
"O. c #676726",
"+. c #6C6B23",
"@. c #75612C",
"#. c #78692A",
"$. c #677726",
"%. c #727724",
"&. c #686936",
"*. c #776736",
"=. c #667433",
"-. c #6B733B",
";. c #787939",
":. c #543D47",
">. c #454A49",
",. c #5C4949",
"<. c #5C564B",
"1. c #594B55",
"2. c #5B595A",
"3. c #64494E",
"4. c #774C48",
"5. c #634C53",
"6. c #6A5555",
"7. c #676748",
"8. c #716B45",
"9. c #7B7648",
"0. c #766D5D",
"q. c #697152",
"w. c #7D7557",
"e. c #46566D",
"r. c #6B5A60",
"t. c #5C687F",
"y. c #6D606A",
"u. c #766A64",
"i. c #7B7464",
"p. c #902F31",
"a. c #86571A",
"s. c #9A6D0D",
"d. c #A6790B",
"f. c #A47E1F",
"g. c #844E27",
"h. c #807431",
"j. c #8B3D4E",
"k. c #92514F",
"l. c #A34C47",
"z. c #A44D4A",
"x. c #A7504A",
"c. c #B25149",
"v. c #BB564C",
"b. c #896D53",
"n. c #84765D",
"m. c #9F596F",
"M. c #8B756C",
"N. c #857868",
"B. c #917E6C",
"V. c #B46D6D",
"C. c #C4655D",
"Z. c #D2675B",
"A. c #D5695C",
"S. c #DE6A5B",
"D. c #E26D5E",
"F. c #E86F5F",
"G. c #E67567",
"H. c #E87060",
"J. c #E27F77",
"K. c #3A8207",
"L. c #3D8009",
"P. c #44820C",
"I. c #49830E",
"U. c #448D0A",
"Y. c #4B8C0D",
"T. c #518E0F",
"R. c #48900B",
"E. c #51910E",
"W. c #4E8211",
"Q. c #4E8910",
"!. c #538413",
"~. c #548B12",
"^. c #588E14",
"/. c #589213",
"(. c #64851A",
"). c #6B8335",
"_. c #76854A",
"`. c #7E904E",
"'. c #7F8356",
"]. c #AF8204",
"[. c #BA8907",
"{. c #C79701",
"}. c #848655",
"|. c #8D905E",
" X c #888269",
".X c #958762",
"XX c #93946A",
"oX c #8D8573",
"OX c #8D8179",
"+X c #95897A",
"@X c #B98968",
"#X c #A4907E",
"$X c #C38D67",
"%X c #C59578",
"&X c #D59E76",
"*X c #D59F7E",
"=X c #83788F",
"-X c #9E8E85",
";X c #9D8B93",
":X c #A28E84",
">X c #A19383",
",X c #A79789",
"<X c #A99791",
"1X c #AE9B93",
"2X c #B29F95",
"3X c #AFA18C",
"4X c #B5A298",
"5X c #BAA59D",
"6X c #A58BA4",
"7X c #AD9BAD",
"8X c #BEAAA3",
"9X c #AAA3BC",
"0X c #CBA994",
"qX c #E3B79E",
"wX c #C3ADA9",
"eX c #E4BBA5",
"rX c #F2CAB2",
"tX c #D7BBC4",
"yX c #CBC5D2",
"uX c #E2C2C9",
"iX c #D5CEE1",
"pX c #E4E1F3",
/* pixels */
"k P.W.6 6 P.k 6 k I.9 K.7 3 U.0 0 6 3 0 U.U.0 3 7 K.5 5 I.L.0 Y.",
"6 B V Z !.Z k Z h 9 W.9 L.B 7 9 W.P.I.9 9 7 9 l 7 l I.l h 9 5 k ",
"W.A p V 9 V B D x V q B k v k q k P.V w V Z w V 9 B 5 x y W.I.^.",
"W.l s !.V E R R n K R s r n 2 R K i R b r K v K i R B W.u I.I.h ",
"6 k V i J L ` U I I K Q T P I L W ` Q P I I P U ` L J 2 B 9 5 6 ",
"h z z A ! _ @.#.H O._ @.$.+.+.F `  .&.+.+.@.$.G #._ ! Z q 1 k !.",
"z 9 Z v n _ O.O...&.7.u._.O. ...N.oXoX'.=.=.9.-.G F n v Z 9 x ^.",
"Q.0 6 J _ #.(.=.oXB.N.>X6.:.:.:.5.5.r.1X X X1X>X..S Q K 6 0 W.x ",
"R.Y.u U d N ).>X5X<X,.3.C.A.A.A.A.Z.x.r.1X XoX+XB.=.N U u Y.Y.Z ",
"7 U.v b d _ -.1X>X,.l.Z.H.H.H.H.H.H.S.z.5.).}.5X8Xu. .n v U.9 z ",
"I.k c ~ c ' w..X;.,.Z.H.H.H.H.H.H.H.H.Z.5.q.w.+X+X7.m ~ c P.I.W.",
"V Z M _ G '.4X1X6.l.D.H.H.H.H.H.H.H.H.J.6X2...w.i.$.H _ S Z Z Y.",
"b V E  .%.i.;X1X,.x.S.H.H.H.H.H.H.F.G.uXV.t.2.>X4X}.F T E V x k ",
"0 Z W ~ S { u.-X,.l.v.S.D.D.D.D.D.S.C.tXV.iXyXy.1Xn.D T W Z 0 ^.",
"9 P.m | h.@.N.<X,.l.c.c.c.c.c.c.c.c.c.V.7XpXiXr.oX-.O.[ m P.9 9 ",
"i e n ' n.;.&.N.3.l.c.c.c.c.c.c.c.c.c.z.m.iX9X1.X._.n.` n e a x ",
"w k N T <.(. .8./ ; l.l.l.l.l.l.l.l.l.j.6X9Xy.<.G $./ T N k x !.",
"q 9 L @.`  .i.+XT ) ; - - - - - - :.:.= :.1.i.0.&.$.@.@.L 9 w ^.",
"u < & @.H ).5XwXXXT ) ) ) ) ( } * 4.=XX : 4.,X,Xu.X.$.| & < u c ",
"A < p [ _ 7.<X5X5X<.% g.g.( @X$X} %XyX= @Xk.B.+X-X XV W p < Z Z ",
"7 k U T ] | i.1X8XOX/ ) ) ( @X&X&XrXrXeXqX%X#X4X3Xi.N T U k 0 x ",
"I.k u ! _ | w.oX+Xr.0.# . ( ( @X&X*XeXeXb.N.+X+X`.8.' Q s P.I.W.",
"k k n n d i.4X5XXX_.:X[ d.f % ] %Xk.k.M.:X|.).q.7.0.-. .i 6 I.E.",
"6 B c U o.9.+X1X>X$.[ d.{.[.a.f.7X6Xk.,X2X;.).>X<Xn.@.W S !.A k ",
"W.!.k R Q +.%.-.N.8.# a.[.].. ^ 2.= p.<.N.*.+XwX8XB.T K W.T.I.^.",
"!.I.I.x m ~ ~ N S $.@ d.s.f   >.0X0Xo t *.%.b.B.B.9...z 4 g k h ",
"6 x 1 1 & _ #.+.N S @ f s.. $ >.@X@XX ^ #.' o.o.%.o.T z 1 c h g ",
"9 k z n a K W L L p y + .   e.e.o X # J T I J L E R a b h k k W.",
"x j L c h s a i w a < 1 , O : p.p.p.@ 1 R 2 i 2 2 1 l V p j k /.",
"~.k m z 4 h x x z V g !.h u + O O + w w c x c g V 4 4 V c B h V ",
"E.~.k x g k ~./.!.V h T.~.k w 4 9 I./.!.V h T.~.k x g k ~./.!.V ",
"k T.k D h 4 9 k g z > 8 T.k D h 4 9 k g z > 8 T.k D h 4 9 P.g x "
};
