/* XPM */
static char *_72f955b44304467d17e648750939935QGt9W1LrmkJ8tDRO[] = {
/* columns rows colors chars-per-pixel */
"32 32 172 2 ",
"   c #1D222D",
".  c #22252C",
"X  c #2B2629",
"o  c #2B282A",
"O  c #332524",
"+  c #3C2721",
"@  c #372B23",
"#  c #3A2D23",
"$  c #332C29",
"%  c #3D2F2F",
"&  c #3E3123",
"*  c #3C312A",
"=  c #2A2C33",
"-  c #3C3431",
";  c #45261E",
":  c #46281E",
">  c #4B2C1D",
",  c #45311E",
"<  c #4E311D",
"1  c #5D3C17",
"2  c #54341C",
"3  c #58371A",
"4  c #553A1B",
"5  c #5C3B1B",
"6  c #603F16",
"7  c #603F19",
"8  c #412220",
"9  c #412E22",
"0  c #4B2E21",
"q  c #433222",
"w  c #4C3322",
"e  c #4E3923",
"r  c #44332A",
"t  c #49352E",
"y  c #4F392E",
"u  c #553520",
"i  c #553B23",
"p  c #5A3C22",
"a  c #533C2A",
"s  c #443433",
"d  c #306807",
"f  c #346C07",
"g  c #356B0A",
"h  c #366A0C",
"j  c #396B09",
"k  c #3B6C0A",
"l  c #3F6D0F",
"z  c #377C06",
"x  c #3B7F07",
"c  c #3E730D",
"v  c #5F4017",
"b  c #5E411D",
"n  c #485218",
"m  c #634216",
"M  c #6C4A16",
"N  c #64431B",
"B  c #68471B",
"V  c #67481A",
"C  c #6C4A1C",
"Z  c #704E1B",
"A  c #75531E",
"S  c #41750B",
"D  c #41760E",
"F  c #41790B",
"G  c #417C09",
"H  c #487E0F",
"J  c #4F7E0F",
"K  c #477610",
"L  c #4A7112",
"P  c #487711",
"I  c #4F7F12",
"U  c #527F14",
"Y  c #5D4223",
"T  c #5D4329",
"R  c #4C4138",
"E  c #524337",
"W  c #55443C",
"Q  c #644322",
"!  c #654922",
"~  c #6C4B20",
"^  c #604529",
"/  c #704F22",
"(  c #745221",
")  c #3B3D42",
"_  c #3F4549",
"`  c #434046",
"'  c #494240",
"]  c #43454A",
"[  c #4F474A",
"{  c #464B4F",
"}  c #4B4B4C",
"|  c #524641",
" . c #554944",
".. c #524A4B",
"X. c #5A4E4B",
"o. c #5F5545",
"O. c #51504E",
"+. c #5B534D",
"@. c #494E50",
"#. c #4D5253",
"$. c #525454",
"%. c #595756",
"&. c #545857",
"*. c #595853",
"=. c #53565A",
"-. c #565A5B",
";. c #5A5C5C",
":. c #635246",
">. c #675A47",
",. c #66584F",
"<. c #635C55",
"1. c #675D58",
"2. c #5F625E",
"3. c #6B604E",
"4. c #64665E",
"5. c #5A5D60",
"6. c #5E6262",
"7. c #626564",
"8. c #696763",
"9. c #656A65",
"0. c #6C6C65",
"q. c #646769",
"w. c #666A6A",
"e. c #696D6B",
"r. c #706B63",
"t. c #6D726C",
"y. c #71746E",
"u. c #6E7170",
"i. c #737572",
"p. c #747A73",
"a. c #797A75",
"s. c #747779",
"d. c #767979",
"f. c #7B7E78",
"g. c #7C7E7B",
"h. c #7A7D7C",
"j. c #7D7F7D",
"k. c #817C7B",
"l. c #3B8008",
"z. c #3E8009",
"x. c #46810B",
"c. c #47820D",
"v. c #48870E",
"b. c #498C0C",
"n. c #4F8211",
"m. c #4F8511",
"M. c #508213",
"N. c #588E14",
"B. c #7F817E",
"V. c #81837E",
"C. c #7F8380",
"Z. c #818281",
"A. c #838580",
"S. c #848582",
"D. c #838685",
"F. c #8A8782",
"G. c #868A84",
"H. c #898A85",
"J. c #888C89",
"K. c #8E8D8B",
"L. c #8C8B8C",
"P. c #918D8B",
"I. c #8E908A",
"U. c #91938E",
"Y. c #97908D",
"T. c #909390",
"R. c #959390",
"E. c #969692",
"W. c #979893",
"Q. c #9F9D98",
"!. c #A09998",
"~. c #A5A19B",
/* pixels */
"G x.m.l l x.G j !.E.a.B.f.7.H.U.I.7.Z.g.7.} $.d z l.g h v.z.x b.",
"k K P I M.I Y.R.W.B.-.a.7.w.t.t.9.;.a.t.-.u.S.V.7.$.8.H D c f F ",
"n.U n L ~.Q.=.#.y.e.7.t.;.e.-.#.{ 5.9.;.e.f.y.y.q.i.e.;.[ n.c.N.",
"n.J P.K.U.A.-.;.$.q.w.7.t.V.g.-.7.f.6.q.5.7.7.#.i.V.t.;.;.` c.S ",
"k.L.B.i.t.7.w.i.-.6.f.7.-.t.0.2.] y.t.i.-.e.-.=.u.9.7.u.f.7.g...",
"A.f.i.-.@.#.6.9.t.$.$. .r t y * + e E | $.y.t.6.d.6.i.i.e.j.A.8.",
"2.e.9.e.B.t.&._ O.R w ; : ; ; ; ; : : ; 0 E } e.D.-.w.w.s.K.a.i.",
"{ 5.@.w.i.e.{ - w : : ; ; 8 ; + ; : : : ; : w :.,...j.S.w.w.e.q.",
"h.f.e.y.#.) - > ; ; : ; ; ; 2 + # 2 > < ; : ; > ; > | 2.#.j.T.G.",
"i.e.y.t.+.r > ; ; : > > 1 2 1 # & 2 2 1 2 2 : > : : 0 W *.a.t.p.",
"&.9.4.W < : : ; : : 1 1 m 2 1 # & 2 1 m 5 N > 1 : 2 : ; a *.{ -.",
"=.} a : > : ; : 2 2 7 5 1 > 1 # & 1 1 1 5 N 5 C 2 5 u : > e %.u.",
"g.r.p : > : 2 2 2 2 5 2 2 5 1 # # 7 5 2 u 7 7 Z 2 N 5 > : 2 3.a.",
"i.<.2 : 2 : C 7 1 2 N 2 1 N 7 # @ 1 N 2 u 5 Q C 2 N 5 > > 1 >.t.",
"e.+.< : 5 0 N 5 2 0 b 2 C 5 1 # , 2 V N p 4 i C 0 b u : 2 4 o.t.",
"w.[ O O q $ . . . . . o Y 5 2 X 4 2 N 4 o . . . . . X @ . = 7.w.",
"G.+.+ O b e q @ * @ @ # 1 5 < X 1 5 1 1 9 # O # * & 9 ! # r i.B.",
"9. .> : B Q B 1 N 5 1 2 N 1 2 @ 5 1 ! N 5 1 > m 1 m > A 5 p y.t.",
"9. .> : B 2 6 1 C 5 N 5 B 1 m q 5 m N N 1 1 2 m 1 1 ; A 1 p 0.t.",
"$.| > : C 5 1 1 N 2 B 3 N 1 1 9 5 1 N N 5 N 2 m 5 N > ( 5 T e.q.",
"s...> > N Q 2 2 N 0 N 3 N > 1 # 5 5 Z m Q C 2 m 2 N 5 ( 1 ^ H.J.",
"G.1.< > N Q 2 3 C 1 m 5 N 2 1 # & 5 ( m ! C 2 V > 1 Q ( 1 Y y.t.",
"t.+.< > N Q 1 3 C 2 m 1 7 1 6 @ # 5 ( N ! C 5 M 2 1 Q ( 1 ^ 0.t.",
"y.+.< > N ! N 1 B 5 m 1 1 1 6 + # 1 5 5 5 N 2 B 2 B p ( 2 ^ 8.-.",
"-.' < > B Q N 1 N N m 1 b 9 m # # 1 @ 2 C 1 2 m 1 C p / : p 8.6.",
"e.X.> > N p N 5 N N m 3 q o 4 q # < X 9 C 1 2 1 1 N 2 ~ : T a.B.",
"H.X.> > 1 5 B 1 N p m 2 q 9 < q # q q $ V m 2 1 2 N 2 B : p i.t.",
"t.| : : N N B 1 N u 6 5 Y q v # # 4 q w C N 2 Z 5 N 2 2 2 i i.e.",
"9.W > > N N N 1 N N m N C 2 m # & 6 1 N 1 N 0 A N N > > 1 Y k.6.",
"=.s > < N N 1 5 7 3 m B C 1 5 o # 6 5 V 1 7 u A N B 2 2 1 Y F.C.",
"e.s : > N 5 2 2 4 < 5 ! C 1 2 . , 1 2 6 2 4 2 C i b 2 b q i y.t.",
";.% O + # o . . . . o * Y 7 2 X 2 2 > 2 X . . . . . o *   = u.t."
};
