/* XPM */
static char *_66d38f03bdc4276e4318a52157ff53bgQu30V88Bl65owHx[] = {
/* columns rows colors chars-per-pixel */
"32 32 158 2 ",
"   c None",
".  c #1D222D",
"X  c #2C2827",
"o  c #22252C",
"O  c #2B2629",
"+  c #2B282A",
"@  c #332524",
"#  c #3C2721",
"$  c #372B23",
"%  c #3A2D23",
"&  c #332C29",
"*  c #3D2F2F",
"=  c #3E3123",
"-  c #3C312A",
";  c #2A2C33",
":  c #3C3431",
">  c #45261E",
",  c #46281E",
"<  c #4B2C1D",
"1  c #45311E",
"2  c #4E311D",
"3  c #5D3C17",
"4  c #54341C",
"5  c #58371A",
"6  c #553A1B",
"7  c #5C3B1B",
"8  c #603F16",
"9  c #603F19",
"0  c #412220",
"q  c #412E22",
"w  c #4B2E21",
"e  c #433222",
"r  c #4C3322",
"t  c #4E3923",
"y  c #44332A",
"u  c #49352E",
"i  c #4F392E",
"p  c #553520",
"a  c #553B23",
"s  c #5A3C22",
"d  c #533C2A",
"f  c #443433",
"g  c #5F4017",
"h  c #5E411D",
"j  c #634216",
"k  c #6C4A16",
"l  c #64431B",
"z  c #68471B",
"x  c #67481A",
"c  c #6C4A1C",
"v  c #704E1B",
"b  c #75531E",
"n  c #5D4223",
"m  c #5D4329",
"M  c #4C4138",
"N  c #524337",
"B  c #55443C",
"V  c #644322",
"C  c #654922",
"Z  c #6C4B20",
"A  c #604529",
"S  c #704F22",
"D  c #745221",
"F  c #3B3D42",
"G  c #3F4549",
"H  c #434046",
"J  c #494240",
"K  c #43454A",
"L  c #4F474A",
"P  c #464B4F",
"I  c #4B4B4C",
"U  c #524641",
"Y  c #554944",
"T  c #524A4B",
"R  c #5A4E4B",
"E  c #5F5545",
"W  c #51504E",
"Q  c #5B534D",
"!  c #494E50",
"~  c #4D5253",
"^  c #525454",
"/  c #595756",
"(  c #545857",
")  c #595853",
"_  c #53565A",
"`  c #565A5B",
"'  c #5A5C5C",
"]  c #635246",
"[  c #675A47",
"{  c #66584F",
"}  c #635C55",
"|  c #675D58",
" . c #5F625E",
".. c #6B604E",
"X. c #64665E",
"o. c #5A5D60",
"O. c #5E6262",
"+. c #626564",
"@. c #696763",
"#. c #656A65",
"$. c #6C6C65",
"%. c #646769",
"&. c #666A6A",
"*. c #696D6B",
"=. c #706B63",
"-. c #6D726C",
";. c #71746E",
":. c #6E7170",
">. c #737572",
",. c #747A73",
"<. c #797A75",
"1. c #747779",
"2. c #767979",
"3. c #797C78",
"4. c #7B7E78",
"5. c #7A7E7A",
"6. c #7A7D7B",
"7. c #7C7D7A",
"8. c #7C7E7B",
"9. c #7A7D7C",
"0. c #7C7E7E",
"q. c #7D7F7D",
"w. c #7C7D7A",
"e. c #817C7B",
"r. c #807E79",
"t. c #7F817E",
"y. c #7E827E",
"u. c #7D837C",
"i. c #81817F",
"p. c #81837E",
"a. c #7F8380",
"s. c #818281",
"d. c #838580",
"f. c #828680",
"g. c #858783",
"h. c #848582",
"j. c #838685",
"k. c #8A8782",
"l. c #848A85",
"z. c #868A84",
"x. c #898A85",
"c. c #8B8B86",
"v. c #8E8D8B",
"b. c #8C8D8A",
"n. c #8C8B8C",
"m. c #888C89",
"M. c #918D8B",
"N. c #8E908A",
"B. c #91938E",
"V. c #92938E",
"C. c #97908D",
"Z. c #909390",
"A. c #959390",
"S. c #969692",
"D. c #979893",
"F. c #9F9D98",
"G. c #A09998",
"H. c #A5A19B",
/* pixels */
"                G.S.<.t.4.+.x.B.N.+.s.8.+.I ^                   ",
"            C.A.D.t.` <.+.&.-.-.#.' <.-.` :.h.p.+.^ @.          ",
"        H.F._ ~ ;.*.+.-.' *.` ~ P o.#.' *.4.;.;.%.>.*.' L       ",
"    M.v.B.d.` ' ^ %.&.+.-.p.8.` +.4.O.%.o.+.+.~ >.p.-.' ' H     ",
"e.n.t.>.-.+.&.>.` O.4.+.` -.$. .K ;.-.>.` *.` _ :.#.+.:.3.+.w.T ",
"d.4.>.` ! ~ O.#.-.^ ^ Y y u i - # t N U ^ ;.-.O.2.O.>.>.*.q.d.@.",
" .*.#.*.t.-.( G W M r > , > > > > , , > w N I *.j.` &.&.1.v.<.>.",
"P o.! &.>.*.P : r , , > > 0 > # > , , , > , r ] { T q.h.&.&.*.%.",
"9.4.*.;.~ F : < > > , > > > 4 # % 4 < 2 > , > < > < U  .~ q.Z.z.",
">.*.;.-.Q y < > > , < < 3 4 3 % = 4 4 3 4 4 , < , , w B ) <.-.,.",
"( #.X.B 2 , , > , , 3 3 j 4 3 % = 4 3 j 7 l < 3 , 4 , > d ) P ` ",
"_ I d , < , > , 4 4 9 7 3 < 3 % = 3 3 3 7 l 7 c 4 7 p , < t / :.",
"8.=.s , < , 4 4 4 4 7 4 4 7 3 % % 9 7 4 p 9 9 v 4 l 7 < , 4 ..<.",
">.} 4 , 4 , c 9 3 4 l 4 3 l 9 % $ 3 l 4 p 7 V c 4 l 7 < < 3 [ -.",
"*.Q 2 , 7 w l 7 4 w h 4 c 7 3 % 1 4 x l s 6 a c w h p , 4 6 E -.",
"&.L @ @ e & o o o o o + n 7 4 O 6 4 l 6 + o o o o o O $ o ; +.&.",
"z.Q # @ h t e $ - $ $ % 3 7 2 O 3 7 3 3 q % @ % - = q C % y >.u.",
"#.Y < , z V z 3 l 7 3 4 l 3 4 $ 7 3 C l 7 3 < j 3 j < b 7 s ;.-.",
"#.Y < , z 4 8 3 c 7 l 7 z 3 j e 7 j l l 3 3 4 j 3 3 > b 3 s $.-.",
"^ U < , c 7 3 3 l 4 z 5 l 3 3 q 7 3 l l 7 l 4 j 7 l < D 7 m *.%.",
"1.T < < l V 4 4 l w l 5 l < 3 % 7 7 v j V c 4 j 4 l 7 D 3 A c.m.",
"z.| 2 < l V 4 5 c 3 j 7 l 4 3 % = 7 D j C c 4 x < 3 V D 3 n ;.-.",
"-.Q 2 < l V 3 5 c 4 j 3 9 3 8 $ % 7 D l C c 7 k 4 3 V D 3 A $.-.",
";.Q 2 < l C l 3 z 7 j 3 3 3 8 # % 3 7 7 7 l 4 z 4 z s D 4 A @.` ",
"` J 2 < z V l 3 l l j 3 h q j % % 3 $ 4 c 3 4 j 3 c s S , s @.O.",
"*.R < < l s l 7 l l j 5 e + 6 e % 2 O q c 3 4 3 3 l 4 Z , m <.u.",
"c.R < < 3 7 z 3 l s j 4 e q 2 e % e e & x j 4 3 4 l 4 z , s >.-.",
"-.U , , l l z 3 l p 8 7 n e g % % 6 e r c l 4 v 7 l 4 4 4 a >.*.",
"#.B < < l l l 3 l l j l c 4 j % = 8 3 l 3 l w b l l < < 3 n e.O.",
"_ f < 2 l l 3 7 9 5 j z c 3 7 + % 8 7 x 3 9 p b l z 4 4 3 n k.a.",
"*.f , < l 7 4 4 6 2 7 C c 3 4 o 1 3 4 8 4 6 4 c a h 4 h e a ;.-.",
"' * @ # % + o o o o + - n 9 4 O 4 4 < 4 O o o o o o + - . ; :.-."
};
