/* XPM */
static char *_6ae542da2794ae7bb42167f1bee4159[] = {
/* columns rows colors chars-per-pixel */
"64 64 21 1 ",
"  c None",
". c #484850",
"X c #303038",
"o c #606068",
"O c black",
"+ c #5E3375",
"@ c #D8A078",
"# c #432B4A",
"$ c #784040",
"% c #9088B8",
"& c #E8E8F8",
"* c #F8D0B8",
"= c #3C3C3C",
"- c gray11",
"; c #2A2A2A",
": c #4A4A52",
"> c #F66218",
", c #C2C2D6",
"< c #9494A4",
"1 c #C0B8D0",
"2 c white",
/* pixels */
"                                                                ",
"                                                                ",
"                                                                ",
"                                                                ",
"                                                                ",
"                                                                ",
"                                                                ",
"                                                                ",
"                         ..XXXXXXXXXX..                         ",
"                         ..XXXXXXXXXX..                         ",
"                     XXXX..oooooooooo..XXXX                     ",
"                     XXXX..oooooooooo..XXXX                     ",
"                   XXXXooooooooooooooooooXXXX                   ",
"                   XXXXooooooooooooooooooXXXX                   ",
"                 OOXXooooooooooooooooooooooXXOO                 ",
"                 OOXXooooooooooooooooooooooXXOO                 ",
"               OOOOXXoo..................ooXXOOOO               ",
"               OOOOXXoo..................ooXXOOOO               ",
"               OOXXXX..oooooooooooooooooo..XXXXOO               ",
"               OOXXXX..oooooooooooooooooo..XXXXOO               ",
"               OOXXXXXXooooooooooooooooooXXXXXXOO               ",
"               OOXXXXXXooooooooooooooooooXXXXXXOO               ",
"               OOXXXXXX..oooooooooooooo..XXXXXXOO               ",
"               OOXXXXXX..oooooooooooooo..XXXXXXOO               ",
"               OOOOXXXXXX..............XXXXXXOO++               ",
"               OOOOXXXXXX..............XXXXXXOO++               ",
"               OOOOXXXXXXXXXXXXXXXXXXXXXXXXXXOOOO               ",
"               OOOOXXXXXXXXXXXXXXXXXXXXXXXXXXOOOO               ",
"               OO@@OOooXXXXXXXXXXXXXXXXXXooOO@@OO               ",
"               OO@@OOooXXXXXXXXXXXXXXXXXXooOO@@OO               ",
"               OO@@##XXooooooooooooooooooXX##@@OO               ",
"               OO@@##XXooooooooooooooooooXX##@@OO               ",
"                 OO$$XXXX%%ooOOOOOOoo%%XXXX$$OO                 ",
"                 OO$$XXXX%%ooOOOOOOoo%%XXXX$$OO                 ",
"                   OO@@@@&&OO******OO&&@@@@OO                   ",
"                   OO@@@@&&OO******OO&&@@@@OO                   ",
"                     $$@@**************@@$$                     ",
"                     $$@@**************@@$$                     ",
"                     OO$$@@****@@****@@$$OO                     ",
"                     OO$$@@****@@****@@$$OO                     ",
"                   OO====OO$$@@@@@@$$OO====OO                   ",
"                   OO====OO$$@@@@@@$$OO====OO                   ",
"                 --;;====::::>>::>>::::====;;--                 ",
"                 --;;====::::>>::>>::::====;;--                 ",
"               OO,,<<;;;;<<::>>>>::::<<;;;;<<,,OO               ",
"               OO,,<<;;;;<<::>>>>::::<<;;;;<<,,OO               ",
"               OO,,,,OO--XX<<<<<<>><<XX--OO,,,,OO               ",
"               OO,,,,OO--XX<<<<<<>><<XX--OO,,,,OO               ",
"                 OOOOOO..----;;--;;----..OOOOOO                 ",
"                 OOOOOO..----;;--;;----..OOOOOO                 ",
"                     OOXXXX....XX....XXXXOO                     ",
"                     OOXXXX....XX....XXXXOO                     ",
"                     OO1111OOOOOOOOOO1111OO                     ",
"                     OO1111OOOOOOOOOO1111OO                     ",
"                       OOOO          OOOO                       ",
"                       OOOO          OOOO                       ",
"                                                                ",
"                                                                ",
"                                                                ",
"                                                                ",
"                                                                ",
"                                                                ",
"                                                                ",
"                                                                "
};
